<?xml version="1.0" encoding="utf-8"?>
<!-- Generator: Adobe Illustrator 22.1.0, SVG Export Plug-In . SVG Version: 6.00 Build 0)  -->
<svg version="1.1" xmlns="http://www.w3.org/2000/svg" xmlns:xlink="http://www.w3.org/1999/xlink" x="0px" y="0px" width="1920px"
	 height="1080px" viewBox="0 0 1920 1080" style="enable-background:new 0 0 1920 1080;" xml:space="preserve">
<style type="text/css">
	.st0{display:none;}
	.st1{fill:#ADA7BC;}
	.st2{fill:#ADA7BC;stroke:#000000;stroke-width:3;stroke-miterlimit:10;}
	.st3{fill:#584A7E;stroke:#000000;stroke-width:3;stroke-miterlimit:10;}
</style>
<g id="Слой_1" class="st0">
	
		<image style="display:inline;overflow:visible;" width="800" height="531" xlink:href="BC77D587.jpg"  transform="matrix(2.0339 0 0 2.0339 146.4407 0)">
	</image>
</g>
<g id="Слой_2">
	<g>
		<path class="st1" d="M483.609,96.137l-200.857,65.264l-2.813,384.835l83.268,6.189l9.002-12.659l-9.565-5.908l-0.563-18.567
			l-3.938-5.064l0.563-22.505l14.066-7.314c0,0,10.127-25.318,23.63-24.193c13.503,1.125,19.129,1.125,19.129,1.125h10.69
			l1.125-6.751l6.189-2.251l1.125-13.503l-2.813-8.439l5.064-1.688l1.688-3.938l6.751,0.563l3.938,4.501l10.127-0.563l10.69,5.626
			v9.565l10.127,2.813v-5.064l-5.626-6.751l-9.565-15.753l-14.628-6.751c0,0,2.25-8.439,18.004-5.064
			c15.754,3.376,19.129,1.688,19.129,1.688l3.938-12.378l27.006,25.881l15.753-0.563l15.191,23.068l34.32,4.501
			c0,0,2.813-2.813,6.189-1.688s6.751,7.314,6.751,7.314l3.938,5.626l-5.064,1.688l5.064,11.252l-7.877,4.501l15.753,11.252
			l9.002-3.798l0.703-6.892l4.079,1.969l7.173-7.314l5.486,4.501l4.36-1.125l8.299,22.364l3.938,2.532l4.36,5.767l11.534,15.472
			l6.751,4.22l5.064,3.235l2.391,0.422l4.642,9.565l13.784,6.751l0.703,8.158l6.611,6.048l2.11-12.659l6.892-3.235l21.239,1.125
			l31.788,34.883c3.249-1.168,6.497-2.336,9.746-3.504c5.097-1.833,10.194-3.665,15.291-5.498
			c-18.285-30.007-36.57-60.013-54.856-90.02l25.599-14.347l-10.62-18.989l4.009-39.243l47.049-72.051l-18.989-8.228l-6.646-12.765
			l-23.208,4.642l-57.704-69.414l-61.889-49.792l-57.528-43.885l-28.905-26.162l-23.63-14.136l-18.356-2.954L483.609,96.137z"/>
		<g>
			<path d="M483.329,95.095c-22.719,7.382-45.438,14.764-68.157,22.146c-35.881,11.659-71.762,23.318-107.643,34.977
				c-8.352,2.714-16.705,5.428-25.057,8.142c-0.47,0.153-1.188,0.543-1.192,1.14c-0.094,12.792-0.187,25.583-0.281,38.375
				c-0.223,30.548-0.447,61.097-0.67,91.645c-0.271,37.116-0.543,74.233-0.814,111.349c-0.234,31.964-0.467,63.928-0.701,95.892
				c-0.077,10.598-0.155,21.195-0.232,31.793c-0.024,3.326-0.049,6.653-0.073,9.979c-0.011,1.55-0.392,3.615-0.038,5.134
				c0.046,0.198-0.003,0.46-0.005,0.666c-0.004,0.547,0.438,0.958,0.981,0.999c13.052,0.97,26.105,1.94,39.157,2.91
				c9.335,0.694,18.669,1.388,28.004,2.081c5.023,0.373,10.688,1.572,15.724,1.169c2.107-0.169,2.5-1.174,3.724-2.895
				c2.458-3.456,4.916-6.913,7.373-10.369c0.285-0.4,0.383-1.018-0.112-1.324c-1.735-1.071-3.469-2.143-5.204-3.214
				c-1.189-0.735-2.399-1.446-3.572-2.206c-1.22-0.791-0.191,0.731-0.445-0.317c-1.129-4.658-0.322-10.625-0.467-15.426
				c-0.031-1.022,0.112-2.226-0.281-3.172c-0.337-0.812-1.372-1.765-1.914-2.461c-0.263-0.338-2.031-2.758-1.819-2.035
				c-0.372-1.269,0.083-3.34,0.116-4.638c0.079-3.168,0.158-6.337,0.238-9.505c0.052-2.067,0.682-4.982,0.175-6.988
				c-0.077-0.305,0.299-2.014-0.341-0.807c-0.508,0.959,1.064-0.295,1.754-0.653c3.558-1.85,8.916-3.464,11.868-6.171
				c2.1-1.927,3.033-5.772,4.43-8.266c3.196-5.706,7.805-13.03,14.362-15.222c4.392-1.468,10.095,0.013,14.654,0.281
				c2.575,0.151,5.155,0.289,7.735,0.334c3.831,0.068,7.666,0.011,11.497,0.011c0.683,0,1.471-0.508,1.587-1.206
				c0.375-2.25,0.75-4.501,1.125-6.751c-0.397,0.38-0.795,0.76-1.192,1.14c2.063-0.75,4.126-1.5,6.189-2.251
				c0.507-0.184,1.141-0.521,1.192-1.14c0.347-4.162,1.221-8.589,1.063-12.755c-0.121-3.189-1.76-6.438-2.773-9.478
				c-0.39,0.477-0.78,0.954-1.17,1.431c1.591-0.53,4.085-0.833,5.439-1.828c1.354-0.995,1.781-3.147,2.425-4.649
				c-0.627,0.302-1.255,0.603-1.882,0.905c1.907,0.159,4.344-0.037,6.163,0.514c0.67,0.203,0.206-0.048-0.109-0.241
				c0.32,0.196,0.65,0.728,0.886,1.013c0.759,0.913,1.647,2.253,2.601,2.973c2.605,1.964,7.233,0.253,10.392,0.325
				c0.883,0.02,1.165,0.066,0.755-0.057c0.779,0.235,1.596,0.84,2.317,1.219c2.204,1.16,4.584,2.859,6.943,3.654
				c1.403,0.473,0.721,0.845,0.578,0.022c0.143,0.821,0,1.798,0,2.63c0,2.214,0,4.428,0,6.641c0,0.41,0.223,0.797,0.644,0.914
				c3.376,0.938,6.751,1.875,10.127,2.813c0.742,0.206,2.298-0.052,2.298-1.109c0-1.695,0.458-4.024-0.148-5.618
				c-0.709-1.862-3.258-3.872-4.511-5.413c-2.6-3.2-4.525-6.954-6.662-10.475c-1.797-2.96-2.912-6.142-6.035-7.68
				c-4.313-2.123-8.742-4.035-13.107-6.049c0.188,0.401,0.377,0.802,0.565,1.202c1.321-4.528,7.533-5.15,11.355-4.874
				c7.226,0.522,14.209,3.186,21.543,2.821c1.712-0.085,3.298-0.115,4.305-1.541c1.127-1.597,1.46-4.587,2.047-6.433
				c0.607-1.909,1.215-3.818,1.822-5.726c-0.834,0.223-1.668,0.447-2.502,0.67c7.077,6.783,14.155,13.565,21.232,20.348
				c1.907,1.827,4.198,5.132,6.808,5.779c1.709,0.423,4.13-0.147,5.886-0.21c2.58-0.092,6.474,0.532,8.906-0.318
				c1.318-0.461,0.341,0.408-0.185-0.338c0.341,0.484,0.763,1.026,1.025,1.557c1.198,2.427,3.103,4.712,4.59,6.97
				c2.884,4.379,5.481,9.738,8.985,13.644c1.605,1.789,3.914,1.53,6.325,1.846c6.307,0.827,12.614,1.654,18.922,2.482
				c3.721,0.488,7.828,1.565,11.542,1.169c0.326-0.035,0.431-0.47,0.719-0.54c4.418-1.076,5.476-0.627,7.779,2.218
				c0.903,1.116,1.603,2.356,2.384,3.553c1.279,1.96,2.677,3.853,4.02,5.771c0.348-0.565,0.696-1.129,1.044-1.694
				c-1.688,0.563-3.376,1.125-5.064,1.688c-0.49,0.163-1.481,0.739-1.17,1.43c1.688,3.751,3.376,7.502,5.064,11.252
				c0.265-0.43,0.53-0.86,0.794-1.29c-2.626,1.5-5.251,3.001-7.877,4.501c-0.603,0.344-1.247,1.198-0.456,1.763
				c4.845,3.461,9.577,7.205,14.587,10.419c3.593,2.305,8.338-1.407,11.933-2.924c0.39-0.165,0.772-0.563,0.817-0.999
				c0.234-2.297,0.469-4.595,0.703-6.892c-0.766,0.37-1.532,0.739-2.298,1.109c1.36,0.656,2.719,1.313,4.079,1.969
				c0.685,0.331,1.568-0.059,2.049-0.549c2.391-2.438,4.782-4.876,7.173-7.314c-0.777,0.133-1.555,0.266-2.332,0.399
				c1.572,1.29,3.6,3.799,5.486,4.501c1.739,0.648,4.029-0.5,5.75-0.944c-0.576-0.218-1.152-0.436-1.728-0.654
				c1.383,3.727,2.766,7.455,4.149,11.182c1.232,3.32,2.078,8.288,4.149,11.182c0.916,1.279,2.711,1.722,3.885,2.753
				c1.546,1.357,2.706,3.378,3.952,5.031c2.33,3.094,4.635,6.207,6.95,9.312c1.99,2.67,3.741,5.849,6.44,7.807
				c3.011,2.185,7.193,5.226,10.618,6.705c0.386,0.167,0.728,0.272,1.135,0.391c-0.052-0.015,2.191,0.686,1.44,0.155
				c-0.495-0.35-0.037,0.284,0.058,0.404c1.623,2.04,2.335,5.141,3.603,7.423c1.574,2.834,4.774,3.595,7.683,5.02
				c1.861,0.912,5.43,1.881,6.89,3.375c0.578,0.592-0.119-0.144-0.178-0.274c0.148,0.323,0.147,0.996,0.115,1.335
				c-0.131,1.373,0.262,3.034,0.381,4.419c0.353,4.091,4.206,6.099,7.145,8.788c0.775,0.709,2.419,0.02,2.582-0.959
				c0.505-3.031,1.01-6.062,1.515-9.092c0.178-1.071,0.178-2.46,0.579-3.475c-0.464,1.172-0.908,0.665,0.275,0.402
				c0.925-0.206,1.937-0.909,2.796-1.312c0.836-0.392,1.664-0.806,2.509-1.178c1.059-0.466-0.94,0.006-0.396-0.033
				c1.125-0.08,2.344,0.124,3.468,0.184c4.056,0.215,8.112,0.43,12.167,0.645c1.354,0.072,2.86,0.344,4.212,0.223
				c1.322-0.119,0.774,0.01,0.486-0.202c1.475,1.086,2.722,2.987,3.95,4.334c5.256,5.768,10.513,11.536,15.769,17.304
				c3.968,4.354,7.936,8.708,11.904,13.063c0.382,0.419,1.056,0.587,1.602,0.391c8.346-3.001,16.691-6.001,25.037-9.002
				c0.682-0.245,1.544-0.872,1.044-1.694c-18.285-30.007-36.571-60.013-54.856-90.02c-0.223,0.518-0.446,1.035-0.668,1.553
				c8.533-4.782,17.066-9.565,25.599-14.347c0.58-0.325,1.04-0.889,0.668-1.553c-2.622-4.689-5.244-9.377-7.866-14.066
				c-0.801-1.431-2.347-3.277-2.725-4.872c0.219,0.922,0.408-2.318,0.475-2.97c1.18-11.549,2.123-23.149,3.542-34.671
				c0.208-1.688-0.261-0.106,0.154-0.985c0.479-1.015,1.299-1.99,1.912-2.928c2.502-3.832,5.005-7.664,7.507-11.496
				c7.442-11.396,14.884-22.792,22.325-34.189c5.005-7.664,10.009-15.328,15.014-22.992c0.38-0.582,0.291-1.177-0.395-1.474
				c-5.823-2.523-11.597-5.226-17.489-7.579c-0.378-0.151-0.971-0.298-1.286-0.557c-0.46-0.378,0.649,0.587,0.128-0.03
				c-0.892-1.055-1.424-2.736-2.057-3.951c-1.478-2.839-2.956-5.677-4.434-8.516c-0.275-0.527-1.135-0.484-1.602-0.391
				c-7.736,1.547-15.472,3.094-23.208,4.642c0.534,0.13,1.068,0.261,1.602,0.391c-16.766-20.168-33.532-40.336-50.298-60.505
				c-4.2-5.052-7.795-9.261-12.869-13.343c-12.109-9.743-24.219-19.485-36.328-29.228c-17.471-14.057-35.19-27.691-53.021-41.294
				c-8.346-6.366-17.102-12.42-25.116-19.202c-9.706-8.214-18.309-18.09-28.449-25.75c-4.296-3.245-9.452-5.703-14.071-8.466
				c-3.973-2.377-7.876-5.651-12.504-6.396c-3.906-0.629-7.812-1.257-11.718-1.886c-1.314-0.211-2.758-0.293-4.043-0.651
				c-0.293-0.082,0.287,0.203-0.851-0.478c-6.399-3.83-12.698-7.839-19.044-11.756c-1.697-1.047-3.393-2.095-5.09-3.142
				c-1.137-0.702-3.642,0.845-2.22,1.723c5.303,3.274,10.606,6.547,15.909,9.821c3.693,2.28,7.402,5.537,11.746,6.255
				c4.006,0.663,8.019,1.29,12.028,1.936c1.274,0.205,2.634,0.3,3.883,0.625c0.858,0.223-0.418-0.31,0.892,0.413
				c6.343,3.501,12.474,7.462,18.692,11.182c10.103,6.044,18.407,15.428,27.102,23.299c6.43,5.82,13.247,10.932,20.149,16.198
				c17.99,13.723,36.122,27.26,53.752,41.444c12.655,10.181,25.31,20.363,37.964,30.544c5.702,4.587,11.559,8.626,15.777,13.7
				c17.867,21.493,35.734,42.985,53.601,64.478c0.494,0.594,0.987,1.188,1.481,1.781c0.403,0.484,1.031,0.505,1.602,0.391
				c7.736-1.547,15.472-3.094,23.208-4.642c-0.534-0.13-1.068-0.261-1.602-0.391c1.55,2.976,3.099,5.952,4.649,8.928
				c1.048,2.013,1.489,3.43,3.309,4.55c5.449,3.351,12.29,5.326,18.173,7.875c-0.132-0.491-0.263-0.983-0.395-1.474
				c-11.987,18.357-23.974,36.714-35.962,55.071c-2.789,4.271-5.578,8.542-8.366,12.812c-0.962,1.474-2.412,3.076-2.974,4.759
				c-1.262,3.776-0.909,8.903-1.312,12.846c-0.689,6.744-1.378,13.488-2.067,20.233c-0.429,4.203-0.926,5.885,1.092,9.493
				c3.017,5.394,6.033,10.788,9.05,16.182c0.223-0.518,0.446-1.036,0.668-1.553c-8.533,4.782-17.066,9.565-25.599,14.347
				c-0.561,0.314-1.065,0.902-0.668,1.553c18.285,30.007,36.571,60.013,54.856,90.02c0.348-0.565,0.696-1.129,1.044-1.694
				c-8.346,3.001-16.691,6.001-25.037,9.002c0.534,0.13,1.068,0.261,1.602,0.391c-9.45-10.37-18.9-20.739-28.349-31.109
				c-0.986-1.082-2.164-2.984-3.429-3.763c-1.66-1.023-4.289-0.637-6.207-0.739c-5.743-0.304-13.437-2.299-18.806,0.192
				c-2.59,1.202-5.349,1.635-6.096,4.438c-0.997,3.739-1.299,7.794-1.936,11.616c0.86-0.32,1.721-0.639,2.581-0.959
				c-1.449-1.325-2.897-2.651-4.346-3.976c-2.068-1.892-1.905-1.352-2.121-3.866c-0.112-1.295,0.224-4.756-0.508-5.891
				c-0.562-0.872-1.867-1.233-2.776-1.678c-3.069-1.503-9.572-3.611-11.374-5.553c-1.638-1.766-2.24-7.928-4.898-9.708
				c-1.243-0.832-2.481-0.516-3.89-1.41c-1.446-0.918-2.886-1.845-4.336-2.756c-4.041-2.538-5.863-3.859-8.652-7.601
				c-2.736-3.67-5.461-7.349-8.208-11.011c-1.962-2.615-3.603-5.413-6.338-7.221c-1.988-1.314-1.88-0.65-2.607-2.682
				c-0.918-2.567-1.898-5.114-2.846-7.67c-1.613-4.346-3.225-8.692-4.838-13.038c-0.258-0.694-1.084-0.82-1.728-0.654
				c-0.876,0.226-1.786,0.399-2.644,0.682c-0.406,0.134-1.041,0.379-1.475,0.381c0.941-0.003,1.156,0.422,0.408-0.364
				c-1.378-1.446-3.198-2.624-4.746-3.894c-0.694-0.569-1.795-0.149-2.332,0.399c-2.391,2.438-4.782,4.876-7.173,7.314
				c0.683-0.183,1.366-0.366,2.049-0.549c-1.36-0.656-2.719-1.313-4.079-1.969c-0.786-0.379-2.203,0.173-2.298,1.109
				c-0.133,1.305-0.266,2.61-0.399,3.915c-0.081,0.791-0.18,1.584-0.243,2.377c-0.081,1.027,1.359-0.598,0.069-0.109
				c-2.807,1.063-5.549,2.341-8.315,3.508c0.588,0.014,1.176,0.027,1.765,0.041c-5.251-3.751-10.502-7.502-15.753-11.253
				c-0.152,0.588-0.304,1.175-0.456,1.763c2.626-1.5,5.251-3.001,7.877-4.501c0.372-0.212,1.034-0.758,0.794-1.29
				c-1.688-3.751-3.376-7.502-5.064-11.252c-0.39,0.477-0.78,0.954-1.17,1.431c1.688-0.563,3.376-1.125,5.064-1.688
				c0.641-0.214,1.594-0.908,1.044-1.694c-2.693-3.847-5.324-9.257-9.082-12.102c-2.198-1.664-4.888-1.956-7.439-0.897
				c-1.019,0.423-3.848,1.42-1.229,1.297c-0.44,0.021-1.027-0.083-1.444-0.189c-10.442-2.653-21.756-1.819-32.26-4.231
				c-1.11-0.255,0.328,0.391,0.155,0.217c-0.392-0.396-0.771-1.08-1.025-1.557c-1.288-2.413-3.087-4.688-4.59-6.97
				c-1.682-2.555-3.365-5.109-5.047-7.664c-1.219-1.852-2.425-4.593-4.042-6.137c-2.294-2.192-7.421-0.837-10.453-0.728
				c-1.988,0.071-4.737,0.686-6.7,0.239c1.59,0.362-0.545-1.035-1.403-1.856c-8.268-7.923-16.536-15.847-24.804-23.77
				c-0.634-0.608-2.242-0.148-2.502,0.67c-1.288,4.05-2.482,8.143-3.869,12.16c-0.01,0.03,1.328-0.596,0.566-0.485
				c-0.531,0.077-1.051,0.151-1.59,0.177c-3.22,0.154-6.473-0.302-9.645-0.808c-6.815-1.087-23.472-5.785-26.534,4.71
				c-0.165,0.566,0.034,0.957,0.565,1.202c3.943,1.82,7.887,3.64,11.83,5.46c0.704,0.325,1.752,0.615,2.375,1.096
				c0.686,0.53-0.451-0.493,0.234,0.339c1.462,1.779,2.518,4.147,3.712,6.113c1.967,3.241,3.773,6.682,6.035,9.722
				c1.384,1.859,3.564,3.539,4.65,5.58c0.522,0.981,0.34,3.202,0.34,5.095c0.766-0.37,1.532-0.739,2.298-1.109
				c-2.716-0.754-7.744-1.11-10.013-2.781c1.165,0.858,0.3,0.55,0.531-0.795c0.141-0.824,0-1.798,0-2.627c0-1.753,0-3.507,0-5.26
				c0-0.482-0.242-0.703-0.644-0.914c-3.133-1.649-6.236-3.542-9.468-4.983c-2.454-1.094-4.741-0.584-7.469-0.432
				c-0.978,0.054-2.046-0.007-3.009,0.167c-1.3,0.235-1.724-0.486-0.51,0.39c-1.462-1.056-2.176-3.184-3.668-4.192
				c-2.023-1.367-5.297-0.96-7.719-1.161c-0.695-0.058-1.581,0.203-1.882,0.905c-0.326,0.762-0.831,1.589-1.024,2.388
				c-0.19,0.444-0.381,0.888-0.571,1.332c0.955-0.537,1.159-0.703,0.613-0.498c-1.224,0.812-3.251,1.084-4.657,1.552
				c-0.546,0.182-1.41,0.708-1.17,1.431c1.021,3.062,2.666,6.458,2.684,9.431c0.023,4.035-0.683,8.196-1.018,12.22
				c0.397-0.38,0.795-0.76,1.192-1.14c-2.063,0.75-4.126,1.5-6.189,2.251c-0.549,0.2-1.088,0.514-1.192,1.14
				c-0.375,2.25-0.75,4.501-1.125,6.751c0.529-0.402,1.058-0.804,1.587-1.206c-5.42,0-10.833,0.078-16.247-0.198
				c-10.036-0.51-18.495-2.78-26.307,4.766c-5.019,4.849-9.676,11.881-12.021,18.511c-0.57,1.612,0.638-0.018-0.249,0.508
				c-1.505,0.892-3.136,1.631-4.687,2.437c-2.925,1.521-5.85,3.042-8.775,4.563c-0.36,0.187-0.806,0.547-0.817,0.999
				c-0.141,5.654-0.283,11.308-0.424,16.962c-0.041,1.658-0.603,4.211-0.116,5.834c0.511,1.703,3.753,4.389,3.921,4.943
				c0.703,2.311,0.173,5.724,0.246,8.12c0.091,2.993-0.317,6.524,0.287,9.465c0.72,3.503,6.962,5.637,9.95,7.483
				c-0.037-0.441-0.075-0.883-0.112-1.324c-1.962,2.758-3.923,5.517-5.885,8.275c-0.349,0.491-2.945,3.368-2.835,3.987
				c0.052,0.291,1.931,0.347,0.882-0.278c-1.104-0.658-4.091-0.304-5.349-0.398c-3.269-0.243-6.538-0.486-9.808-0.729
				c-17.806-1.323-35.613-2.647-53.419-3.97c-4.714-0.35-9.429-0.701-14.143-1.051c0.327,0.333,0.654,0.666,0.981,0.999
				c0.094-12.792,0.187-25.583,0.281-38.375c0.223-30.548,0.447-61.097,0.67-91.645c0.271-37.116,0.543-74.233,0.814-111.349
				c0.234-31.964,0.467-63.928,0.701-95.892c0.077-10.598,0.155-21.195,0.232-31.793c0.024-3.326,0.049-6.653,0.073-9.979
				c0.008-1.154,0.591-4.094,0.038-5.134c-0.073-0.136,0.004-0.497,0.005-0.666c-0.397,0.38-0.795,0.76-1.192,1.14
				c22.719-7.382,45.438-14.764,68.157-22.146c35.881-11.659,71.762-23.318,107.643-34.977c8.352-2.714,16.705-5.428,25.057-8.142
				C485.641,96.61,485.114,94.515,483.329,95.095z"/>
		</g>
	</g>
	<g>
		<g>
			<path class="st1" d="M706.9,558.965c0.034,1.578,0.068,3.165,0.11,4.751c-3.941-0.042-7.882-0.076-11.815-0.11l-15.191-8.861
				c-3.131-0.422-6.262-0.844-9.393-1.266c-12.305,0.633-24.618,1.266-36.922,1.899c-9.427-6.473-18.845-12.938-28.272-19.411
				c0.025-4.481,0.051-8.954,0.068-13.435c1.857-1.755,3.705-3.511,5.562-5.275c-0.262-1.426-0.515-2.861-0.776-4.287
				c-2.675-3.19-5.342-6.38-8.017-9.562c0.49-2.515,0.987-5.021,1.477-7.528c2.431-0.279,4.853-0.565,7.275-0.844
				c3.663,1.511,7.317,3.021,10.971,4.54c-0.203-1.519-0.422-3.03-0.625-4.54c-4.017-1.688-8.017-3.376-12.035-5.064
				c0.042-1.198,0.076-2.388,0.11-3.587c2.886-1.3,5.764-2.599,8.65-3.907c0.279-1.933,0.565-3.865,0.844-5.798
				c1.089,0.532,2.177,1.055,3.274,1.578c2.312-2.245,4.642-4.498,6.954-6.751c1.376,0.92,2.751,1.831,4.118,2.751
				c1.831,0.245,3.654,0.489,5.486,0.734c2.987,7.351,5.975,14.701,8.963,22.052c1.198,0.7,2.397,1.401,3.595,2.11
				c2.988,3.266,5.975,6.532,8.963,9.807c3.274,4.186,6.54,8.372,9.807,12.558c2.532,1.755,5.064,3.511,7.595,5.266
				c1.097,0.625,2.186,1.249,3.274,1.865c1.924,3.519,4.042,5.089,5.967,8.608c4.118,1.688,8.051,5.317,12.178,7.005
				c0.565,2.532,1.122,5.064,1.688,7.595C702.824,554.231,704.858,556.594,706.9,558.965z"/>
			<g>
				<path d="M705.451,559.354c0.034,1.584,0.07,3.168,0.11,4.751c0.794-0.334,1.588-0.669,2.382-1.003
					c-3.102-0.032-8.589,0.901-11.535-0.084c-1.022-0.342-2.137-1.247-3.061-1.786c-3.149-1.837-6.298-3.674-9.447-5.51
					c-9.237-5.389-22.936-2.325-33.074-1.804c-4.14,0.213-8.494,0.807-12.632,0.65c-4.547-0.173-7.35-2.58-10.997-5.084
					c-3.141-2.156-6.282-4.313-9.423-6.469c-3.149-2.162-8.427-4.56-10.161-7.913c-1.578-3.049-1.343-11.154,0.578-13.979
					c1.705-2.506,4.215-2.579,4.044-5.682c-0.174-3.15-2.091-4.748-4.039-7.074c-1.027-1.225-2.724-2.639-3.435-4.097
					c-1.366-2.801-0.155-5.806,0.399-8.636c-0.684,0.286-1.368,0.572-2.051,0.858c3.375-0.389,6.101-0.858,9.454,0.256
					c2.788,0.926,5.513,2.281,8.226,3.407c0.486,0.202,2.738-0.21,2.635-0.966c-0.404-2.959,0.194-4.274-2.608-5.453
					c-2.523-1.062-8.108-2.326-9.293-4.78c-2.148-4.447,5.34-4.043,7.396-6.257c1.329-1.431,1.15-4.316,1.433-6.264
					c-0.931,0.25-1.863,0.499-2.794,0.749c1.089,0.531,2.181,1.057,3.274,1.578c0.74,0.354,2.105-0.038,2.679-0.595
					c2.319-2.25,4.639-4.498,6.954-6.751c-0.893,0.198-1.786,0.396-2.679,0.595c1.368,0.913,2.9,2.293,4.422,2.845
					c2.894,1.05,4.374,0.16,6.217,3.283c2.897,4.909,4.575,11.257,6.722,16.539c1.106,2.722,1.239,2.708,3.603,4.274
					c1.978,1.311,3.432,3.148,5.039,4.906c3.972,4.344,7.633,8.817,11.253,13.455c1.651,2.115,3.098,4.113,5.194,5.762
					c2.181,1.717,4.649,3.069,6.897,4.681c2.061,1.477,3.507,3.156,5.005,5.155c1.085,1.448,2.099,3.686,3.416,4.851
					c3.542,3.133,10.441,4.094,12.515,8.79c0.789,1.786,0.534,4.038,1.351,5.811c1.126,2.443,4.334,5.034,6.119,7.106
					c0.484,0.562,3.208-0.444,2.726-1.004c-1.581-1.836-3.569-3.659-4.894-5.684c-1.543-2.357-1.225-6.942-2.826-8.904
					c-0.706-0.865-3.151-1.685-4.162-2.305c-1.366-0.838-2.665-1.784-4.031-2.622c-4.188-2.572-6.097-5.571-9.116-9.285
					c-2.425-2.983-6.265-4.814-9.513-7.066c-3.981-2.76-6.657-7.192-9.631-10.998c-2.968-3.798-6.245-7.291-9.496-10.846
					c-1.371-1.499-2.856-2.235-4.317-3.509c-2.228-1.942-3.029-5.302-4.1-7.937c-1.992-4.9-3.983-9.801-5.975-14.701
					c-0.078-0.192-0.35-0.204-0.515-0.226c-3.612-0.483-6.167-1.366-9.175-3.373c-0.655-0.437-2.165,0.095-2.679,0.595
					c-2.315,2.253-4.635,4.502-6.954,6.751c0.893-0.198,1.786-0.396,2.679-0.595c-1.094-0.521-2.185-1.047-3.274-1.578
					c-0.528-0.256-2.683-0.018-2.794,0.749c-0.401,2.763-0.408,4.809-2.851,6.507c-1.714,1.191-4.149,1.874-6.055,2.732
					c-0.246,0.111-0.598,0.301-0.606,0.607c-0.032,1.196-0.069,2.391-0.11,3.587c0.052,0.108,0.14,0.172,0.263,0.19
					c2.579,1.084,5.157,2.17,7.735,3.255c3.257,1.371,4.189,2.704,4.661,6.159c0.878-0.322,1.757-0.644,2.635-0.966
					c-3.339-1.387-7.41-4.053-10.971-4.54c-2.357-0.322-5.502,0.541-7.841,0.811c-0.405,0.047-1.935,0.263-2.051,0.858
					c-0.667,3.406-2.448,6.364-0.262,9.148c2.236,2.847,6.972,6.473,7.174,10.227c0.213,3.967-3.727,4.513-5.173,7.418
					c-0.628,1.262-0.018,4.234-0.026,5.758c-0.008,1.529-0.856,6.458-0.042,7.677c1.428,2.138,5.726,3.987,7.94,5.506
					c3.664,2.516,7.329,5.031,10.993,7.547c1.571,1.078,3.141,2.157,4.712,3.235c1.28,0.879,3.171,2.822,4.713,3.236
					c2.389,0.641,6.074-0.165,8.515-0.291c8.417-0.433,16.841-1.008,25.264-1.299c5.561-0.192,10.947,0.03,15.747,2.83
					c3.354,1.957,6.709,3.913,10.063,5.87c4.175,2.436,9.44,1.291,14.162,1.34c0.533,0.006,2.402-0.207,2.382-1.003
					c-0.04-1.584-0.076-3.168-0.11-4.751C708.338,558.045,705.433,558.496,705.451,559.354z"/>
			</g>
		</g>
		<g>
			<path class="st1" d="M796.357,596.605c-3.772,4.523-8.38,9.486-13.925,14.507c-5.241,4.751-10.338,8.667-14.98,11.866
				l-10.76-24.685c0.143-5.697,0.279-11.393,0.422-17.09c-0.498-3.004-1.679-4.481-2.743-5.275c-2.127-1.57-4.405-0.861-5.697-2.532
				c-0.962-1.241-0.776-3.03-0.422-4.431c-3.494-2.717-7.216-5.477-11.182-8.228c-2.574-1.781-5.106-3.469-7.595-5.064
				c-0.776-1.544-1.544-3.089-2.321-4.642c-2.371-0.844-6.034-1.806-10.549-1.688c-2.768,0.076-5.131,0.549-6.962,1.055
				c0.017-1.325,0.253-4.473,2.532-6.751c1.89-1.882,4.296-2.296,6.541-2.532c7.418-0.76,14.98,0.287,20.043,1.266
				c5.376,4.228,9.165,8.178,11.604,10.971c7.823,8.971,11.815,15.824,11.815,15.824c1.207,1.131,2.338,2.397,5.216,5.595
				c1.494,1.257,2.658,2.92,2.658,2.92c3.781-1.359,8.557-2.743,9.747-3.502C785.285,581.009,790.872,589.786,796.357,596.605z"/>
			<g>
				<path d="M795.048,596.724c-8.403,9.971-18.002,18.767-28.701,26.226c0.851-0.12,1.703-0.24,2.554-0.36
					c-3.097-7.106-6.195-14.212-9.292-21.318c-2.112-4.844-1.318-9.437-1.187-14.761c0.087-3.535,0.773-7.755-2.038-10.506
					c-1.012-0.99-2.093-1.28-3.371-1.716c-3.111-1.061-3.981-2.296-3.332-5.584c0.049-0.094,0.028-0.17-0.061-0.227
					c-3.663-2.831-7.378-5.591-11.182-8.228c-1.972-1.367-4.268-2.551-6.097-4.095c-1.769-1.494-2.294-4.366-3.906-5.641
					c-2.181-1.726-7.264-1.725-9.945-1.739c-3.052-0.017-6.011,0.444-8.961,1.198c0.521,0.013,1.042,0.026,1.564,0.039
					c0.302-6.888,5.916-8.596,12.229-8.578c3.788,0.011,7.833,0.121,11.517,1.014c6.617,1.605,12.325,9.115,16.547,14.226
					c3.31,4.006,5.995,8.371,9.104,12.495c2.402,3.185,5.744,5.689,8.114,8.914c0.347,0.472,1.546,0.06,1.945-0.079
					c3.341-1.169,6.926-2.007,10.082-3.638c-0.76,0.072-1.519,0.143-2.279,0.215c5.769,7.287,10.789,15.128,16.558,22.415
					c0.538,0.679,3.091-0.532,2.898-0.776c-5.769-7.287-10.789-15.128-16.558-22.415c-0.416-0.526-1.817-0.024-2.279,0.215
					c-2.907,1.502-6.332,2.288-9.413,3.367c0.648-0.026,1.296-0.053,1.945-0.079c-3.068-4.175-7.041-7.44-9.951-11.753
					c-4.818-7.143-10.372-13.957-16.777-19.737c-1.383-1.248-3.14-3.243-4.821-3.983c-1.884-0.829-4.591-0.791-6.619-1.028
					c-4.612-0.539-9.359-0.795-13.985-0.252c-6.117,0.717-10.856,3.463-11.154,10.237c-0.018,0.407,1.484,0.06,1.564,0.039
					c4.332-1.107,8.816-1.173,13.172-0.134c3.572,0.852,3.147,3.226,5.18,5.469c2.008,2.215,5.865,3.854,8.333,5.58
					c2.591,1.81,5.407,3.574,7.781,5.667c1.114,0.983,1.971,1.575,2.362,3.054c0.25,0.947-0.149,1.823,0.38,2.812
					c0.82,1.531,2.199,1.576,3.661,2.116c7.088,2.616,4.907,11.531,4.758,17.593c-0.081,3.289-0.317,5.293,0.928,8.149
					c1.241,2.846,2.481,5.692,3.721,8.538c1.99,4.565,3.98,9.13,5.97,13.695c0.272,0.625,2.191-0.107,2.554-0.36
					c10.841-7.558,20.591-16.413,29.108-26.52C798.219,595.83,795.494,596.196,795.048,596.724z"/>
			</g>
		</g>
	</g>
	<g>
		<path class="st1" d="M773.641,533.296l-33.9-54.066l25.461-14.574l-10.62-18.989l4.009-39.243l46.629-71.407l-18.568-8.873
			l-6.646-12.765l84.605-15.402l95.259,6.751l36.5-17.512c0,0,6.751-2.954,10.971,3.165c4.22,6.119,8.228,18.778,8.228,18.778
			l29.327,26.373l14.136,44.729l20.254-5.908l2.532,62.029h-7.173l-1.266,42.619l41.353,5.908l6.33,68.148h4.009l7.595,21.942
			l-6.119,2.532l9.494,24.685v17.301l-5.064,6.751l-2.321,22.997l-19.833-15.191l-9.916-1.688l-4.009,13.714l-1.125,21.098
			l-8.299,13.081l6.329,1.125l-3.376,8.017l-13.222,5.204h-14.769l-21.802-11.815l-5.978,8.861l0.422,11.604h-11.815l-2.743,1.266
			l-9.494,1.477l4.22,8.439l0.211,15.824l0.211,9.072l-6.963,2.954l-2.321-12.237l-7.384-1.899l0.211-11.393l-12.87-5.486
			l-5.697,0.211l-14.98-17.09l1.688-8.228l12.237-8.228l-0.211-9.072l6.33-0.422l3.165-6.33l-5.486-12.448l4.431-2.954l11.393,1.477
			l7.595-0.211l6.54-10.549l1.477-8.228l10.549-1.055l0.844-16.879l-29.749-1.899l-15.824-6.54l-2.321-22.997l-3.587,0.844
			l-0.633,6.119l-23.208,1.477l-0.633,12.237l-26.162-2.743l-0.211-13.925l-8.439-0.211l-11.182,21.309l-9.283,0.422l-17.934-18.567
			l-28.905-14.769l-10.549-0.844l-9.283-18.356l-18.356-17.301l-0.422-9.494l-14.98,5.064L773.641,533.296z"/>
		<g>
			<path d="M774.968,532.66c-11.3-18.022-22.6-36.044-33.9-54.066c-0.229,0.494-0.458,0.988-0.688,1.482
				c8.487-4.858,16.974-9.716,25.461-14.574c0.554-0.317,1.056-0.823,0.688-1.482c-2.622-4.689-5.244-9.377-7.866-14.066
				c-2.325-4.158-2.679-3.756-2.258-7.873c1.167-11.428,1.668-23.147,3.522-34.481c0.718-4.391,6.657-11.134,9.485-15.464
				c7.48-11.454,14.959-22.909,22.439-34.363c4.918-7.531,9.836-15.062,14.754-22.593c0.325-0.498-0.146-0.941-0.546-1.132
				c-5.741-2.743-11.663-5.259-17.274-8.255c-0.271-0.145-0.83-0.297-1.071-0.512c-0.459-0.408,0.554,0.471,0.112-0.069
				c-0.954-1.166-1.584-3.043-2.272-4.364c-1.406-2.701-2.813-5.402-4.219-8.104c-0.354,0.54-0.709,1.08-1.063,1.62
				c23.856-4.343,47.713-8.686,71.569-13.029c4.033-0.734,8.064-1.483,12.1-2.203c1.614-0.288-0.111-0.096,0.505-0.085
				c1.179,0.021,2.369,0.168,3.545,0.251c12.603,0.893,25.206,1.786,37.808,2.68c14.296,1.013,28.592,2.026,42.889,3.04
				c3.311,0.235,6.876,0.89,10.198,0.723c2.763-0.139,5.365-1.96,7.842-3.148c6.762-3.244,13.523-6.488,20.285-9.732
				c3.484-1.672,7.261-4.234,11.06-5.102c11.029-2.519,12.07,15.495,16.023,21.705c1.918,3.014,5.987,5.59,8.621,7.958
				c6.005,5.4,12.009,10.8,18.014,16.2c0.805,0.724,1.756,1.412,2.473,2.224c0.776,0.878,0.163,0.015,0.32,0.308
				c0.863,1.612,1.206,3.816,1.756,5.558c4.102,12.979,8.204,25.959,12.306,38.938c0.214,0.677,1.138,0.764,1.713,0.596
				c6.751-1.969,13.503-3.938,20.255-5.908c-0.577-0.29-1.154-0.581-1.731-0.872c0.844,20.676,1.688,41.353,2.532,62.029
				c0.533-0.388,1.065-0.777,1.598-1.165c-2.391,0-4.782,0-7.173,0c-0.577,0-1.578,0.487-1.598,1.165
				c-0.422,14.206-0.844,28.413-1.266,42.619c-0.017,0.571,0.45,0.86,0.964,0.933c7.056,1.008,14.112,2.016,21.169,3.024
				c4.756,0.679,9.512,1.359,14.268,2.038c1.446,0.207,3.037,0.647,4.498,0.643c1.966-0.005,0.611,0.517,0.484-0.332
				c2.378,15.95,3.005,32.36,4.497,48.415c0.607,6.537,1.214,13.073,1.821,19.61c0.053,0.573,0.91,0.664,1.318,0.664
				c1.336,0,2.672,0,4.009,0c-0.439-0.221-0.879-0.443-1.318-0.664c2.532,7.314,5.064,14.628,7.595,21.942
				c0.27-0.411,0.54-0.823,0.809-1.234c-2.04,0.844-4.079,1.688-6.119,2.532c-0.397,0.164-1.003,0.731-0.809,1.234
				c2.578,6.704,5.157,13.408,7.735,20.111c0.743,1.932,1.57,3.834,1.741,5.401c0.435,3.996,0,8.27,0,12.292
				c0,4.092,0.004,3.707-2.567,7.136c-1.517,2.022-2.396,2.924-2.678,5.317c-0.829,7.051-1.427,14.137-2.14,21.201
				c0.862-0.315,1.724-0.63,2.585-0.945c-5.478-4.196-10.957-8.392-16.435-12.589c-1.469-1.126-2.726-2.293-4.438-2.889
				c-2.897-1.009-6.453-1.098-9.49-1.615c-0.823-0.14-1.738,0.363-1.971,1.159c-1.257,4.299-2.897,8.636-3.805,13.018
				c-0.782,3.77-0.587,7.893-0.792,11.739c-0.191,3.583,0.237,8.25-1.226,10.999c-2.179,4.096-5.039,7.943-7.526,11.863
				c-0.406,0.64,0.367,1.116,0.881,1.207c2.11,0.375,4.22,0.75,6.33,1.125c-0.294-0.402-0.587-0.805-0.881-1.207
				c-1.034,2.455-1.823,5.295-3.189,7.573c-0.541,0.902,0.984-0.621,0.25-0.119c-0.373,0.255-1.016,0.432-1.431,0.563
				c-1.496,0.474-2.964,1.167-4.423,1.741c-1.661,0.654-3.323,1.308-4.984,1.962c-0.488,0.192-2.778,0.78-1.387,0.611
				c-2.826,0.343-5.896,0-8.74,0c-1.581,0-3.184-0.077-4.763,0c-1.564,0.076-0.56,0.033-0.478,0.068
				c-2.203-0.955-4.308-2.335-6.417-3.477c-5.035-2.729-10.07-5.457-15.104-8.186c-0.669-0.363-1.856-0.29-2.329,0.411
				c-1.832,2.715-5.292,6.123-6.193,9.258c-0.944,3.286,0.255,8.299,0.38,11.741c0.533-0.388,1.065-0.777,1.598-1.165
				c-3.887,0-8.63-0.799-12.398,0.137c-2.526,0.628-2.091,1.118-4.622,1.512c-2.344,0.365-4.689,0.729-7.033,1.094
				c-0.822,0.128-1.951,0.702-1.458,1.688c0.773,1.547,1.547,3.094,2.32,4.641c0.476,0.953,1.088,1.922,1.46,2.921
				c0.376,1.008,0.251,0.391,0.303,0.666c0.747,3.945,0.115,8.634,0.169,12.65c0.041,3.097,0.116,6.193,0.188,9.29
				c0.018,0.768,0.2,1.751,0.058,2.513c0.239-1.286,0.773-0.58-0.974-0.061c-1.753,0.521-3.469,1.472-5.157,2.188
				c0.696,0.153,1.392,0.305,2.088,0.458c-0.774-4.079-1.547-8.158-2.321-12.237c-0.05-0.261-0.368-0.52-0.611-0.582
				c-1.536-0.395-3.071-0.79-4.607-1.185c-0.602-0.155-2.148-0.26-2.632-0.677c0.878,0.757,0.444,0.769,0.505-0.32
				c0.191-3.404,0.127-6.843,0.19-10.252c0.008-0.448-0.234-0.689-0.629-0.858c-5.32-2.268-11.729-6.775-17.797-5.411
				c-1.533,0.345-1.154-0.283-0.422,0.31c-0.351-0.284-0.783-0.806-1.029-1.173c-0.956-1.431-2.363-2.696-3.495-3.987
				c-2.847-3.248-5.694-6.496-8.541-9.744c-0.358-0.409-1.773-2.327-1.605-1.639c-0.33-1.359,0.827-4.031,1.102-5.374
				c0.146-0.711,0.165-1.936,0.529-2.577c-0.249,0.439-0.571,0.872,0.09,0.245c1.322-1.254,3.243-2.181,4.754-3.196
				c1.794-1.206,6.371-3.061,7.338-5.141c1.044-2.245-0.071-6.889-0.128-9.347c-0.533,0.388-1.065,0.777-1.598,1.165
				c2.536-0.169,6.064,0.402,7.918-1.46c1.574-1.58,3.143-5.303,2.852-7.421c-0.546-3.976-4.434-7.472-5.042-11.441
				c-0.092-0.602-0.957,1.117,0.063,0.263c0.923-0.773,2.167-1.21,3.046-2.031c1.065-0.995-1.601-0.204,0.074,0.04
				c0.992,0.144,1.99,0.258,2.985,0.387c4.294,0.557,13.978,2.953,17.25-0.441c2.249-2.334,4.883-6.946,6.136-9.897
				c1.128-2.655,1.25-5.979,1.762-8.829c-0.533,0.388-1.065,0.777-1.598,1.165c3.516-0.352,7.033-0.703,10.549-1.055
				c0.59-0.059,1.562-0.443,1.598-1.165c0.281-5.626,0.563-11.252,0.844-16.879c0.027-0.538-0.456-0.901-0.964-0.933
				c-6.106-0.39-12.211-0.779-18.317-1.169c-5.545-0.354-10.064-0.227-14.67-2.131c-3.541-1.464-7.081-3.236-10.721-4.431
				c-1.315-0.432-1.159-0.823-0.942-0.267c-0.378-0.964-0.258-2.559-0.36-3.563c-0.646-6.406-1.293-12.812-1.939-19.217
				c-0.073-0.723-1.257-0.703-1.713-0.596c-1.196,0.281-2.391,0.563-3.587,0.844c-0.495,0.116-1.145,0.534-1.204,1.097
				c-0.211,2.039-0.422,4.079-0.633,6.119c0.533-0.388,1.065-0.777,1.598-1.165c-7.736,0.492-15.472,0.985-23.208,1.477
				c-0.591,0.038-1.562,0.459-1.598,1.165c-0.211,4.079-0.422,8.158-0.633,12.237c0.657-0.386,1.314-0.772,1.971-1.159
				c-8.721-0.914-17.441-1.829-26.162-2.743c0.321,0.311,0.642,0.622,0.964,0.933c-0.07-4.642-0.141-9.283-0.211-13.925
				c-0.008-0.522-0.428-0.92-0.964-0.933c-2.813-0.07-5.626-0.141-8.439-0.211c-0.721-0.018-1.524,0.192-1.888,0.884
				c-2.67,5.089-5.341,10.177-8.011,15.266c-0.802,1.529-2.932,4.129-3.077,5.863c0.115-1.378,2.381-0.292-0.42-0.627
				c-1.609-0.193-4.809-0.224-6.347,0.289c-1.548,0.516,0.034,0.354-0.202,0.153c-0.762-0.65-1.427-1.477-2.122-2.197
				c-2.525-2.614-5.05-5.228-7.575-7.842c-2.742-2.839-5.414-6.49-8.69-8.689c-4.9-3.29-10.856-5.547-16.11-8.232
				c-3.955-2.021-8.268-5.066-12.528-6.397c-2.275-0.71-5.18-0.463-7.546-0.652c-0.782-0.063-1.587-0.081-2.364-0.189
				c-0.985-0.137-0.839-0.321-0.178,0.276c-0.598-0.54-0.984-1.946-1.343-2.655c-2.514-4.971-4.605-11.152-7.912-15.645
				c-1.281-1.741-3.409-3.213-4.975-4.689c-3.015-2.842-6.03-5.684-9.045-8.526c-1.027-0.968-2.01-2.042-3.107-2.928
				c-0.523-0.423-1.275-1.378-1.101-0.926c-0.941-2.453-0.291-6.547-0.409-9.203c-0.038-0.854-1.008-1.116-1.731-0.872
				c-4.755,1.607-11.112,4.274-15.151,5.061c-5.987,1.166-12.289,1.416-18.353,2.115c-1.603,0.185-2.237,2.332-0.262,2.105
				c6.157-0.71,12.588-0.933,18.661-2.151c5.286-1.06,10.519-3.433,15.632-5.161c-0.577-0.291-1.154-0.581-1.731-0.872
				c0.122,2.743-0.154,5.822,0.378,8.507c0.364,1.835,0.791,2.082,2.282,3.488c4.991,4.704,10.272,9.226,15.029,14.165
				c3.433,3.564,5.193,8.996,7.415,13.391c0.768,1.519,1.718,4.975,3.068,6.066c1.578,1.276,5.182,0.812,7.11,0.967
				c2.79,0.223,3.346,0.011,4.87,0.74c2.858,1.366,5.653,2.888,8.473,4.33c5.998,3.065,12.175,5.912,18.043,9.219
				c3.194,1.8,6.626,6.254,9.607,9.34c2.452,2.539,4.905,5.078,7.357,7.617c1.163,1.203,1.733,2.069,3.286,2.433
				c2.009,0.472,7.203,0.287,9.148-0.416c1.863-0.673,2.27-2.329,3.178-4.06c3.173-6.047,6.346-12.094,9.519-18.14
				c-0.629,0.295-1.258,0.589-1.888,0.884c2.813,0.07,5.626,0.141,8.439,0.211c-0.321-0.311-0.642-0.622-0.964-0.933
				c0.07,4.642,0.141,9.283,0.211,13.925c0.008,0.556,0.429,0.877,0.964,0.933c8.721,0.914,17.441,1.828,26.162,2.743
				c0.665,0.07,1.927-0.303,1.971-1.159c0.211-4.079,0.422-8.158,0.633-12.237c-0.533,0.388-1.065,0.777-1.598,1.165
				c7.736-0.492,15.472-0.985,23.208-1.477c0.619-0.039,1.525-0.456,1.598-1.165c0.211-2.039,0.422-4.079,0.633-6.119
				c-0.401,0.366-0.802,0.731-1.203,1.097c1.196-0.281,2.391-0.563,3.587-0.844c-0.571-0.199-1.142-0.397-1.713-0.596
				c0.774,7.666,1.547,15.332,2.321,22.997c0.029,0.285,0.389,0.491,0.611,0.582c6.189,2.558,12.509,6.383,19.252,6.813
				c8.885,0.567,17.77,1.134,26.655,1.701c-0.321-0.311-0.642-0.622-0.964-0.933c-0.281,5.626-0.563,11.252-0.844,16.879
				c0.533-0.388,1.065-0.777,1.598-1.165c-3.516,0.352-7.033,0.703-10.549,1.055c-0.663,0.066-1.468,0.438-1.598,1.165
				c-0.652,3.633-0.842,7.064-2.726,10.104c-1.408,2.271-3.053,4.519-4.274,6.893c-1.113,2.164-0.61,0.205,0.432,0.62
				c-0.741-0.295-2.44,0.068-3.178,0.088c-4.222,0.117-7.911-0.395-12.335-0.969c-4.137-0.536-5.272,0.579-8.847,2.963
				c-0.28,0.187-0.652,0.673-0.49,1.042c0.849,1.927,1.698,3.853,2.547,5.78c0.756,1.715,2.856,4.701,2.902,6.586
				c-0.016-0.636-1.054,1.842-1.266,2.267c-0.491,0.981-1.414,2.18-1.623,3.246c-0.079,0.405,1.854-0.246,0.682-0.497
				c-0.555-0.119-1.457,0.097-2.038,0.136c-1.211,0.081-2.422,0.161-3.633,0.242c-0.55,0.037-1.614,0.463-1.598,1.165
				c0.031,1.351,0.063,2.702,0.094,4.053c0.025,1.062-0.029,2.164,0.075,3.22c0.027,0.276-0.084,2.148,0.261,1.372
				c0.243-0.548-1.838,1.091-2.421,1.483c-1.791,1.204-3.581,2.408-5.372,3.612c-1.72,1.156-3.83,2.06-4.731,3.892
				c-0.768,1.559-2.042,6.747-1.48,8.42c0.641,1.907,3.657,4.172,4.969,5.669c2.674,3.05,5.347,6.1,8.021,9.151
				c1.34,1.528,1.743,2.36,3.643,2.67c1.627,0.265,3.42-0.463,5.044-0.187c-0.674-0.115,2.169,1.053,2.825,1.333
				c2.327,0.992,4.655,1.984,6.982,2.976c0.659,0.281,1.411,0.506,2.031,0.866c0.942,0.545-0.151-1.183-0.12-0.019
				c0.095,3.58-0.133,7.195-0.2,10.776c-0.007,0.4,0.223,0.753,0.629,0.858c1.798,0.462,3.639,1.123,5.47,1.407
				c0.196,0.03,1.554,0.263,1.769,0.455c-0.876-0.781-0.333,0.176-0.2,0.854c0.707,3.608,1.37,7.226,2.056,10.838
				c0.169,0.891,1.549,0.687,2.088,0.458c2.321-0.985,4.642-1.969,6.962-2.954c0.332-0.141,0.837-0.546,0.828-0.959
				c-0.143-6.153-0.254-12.303-0.336-18.457c-0.03-2.217,0.341-4.934-0.28-7.07c-0.826-2.842-2.836-5.672-4.166-8.332
				c-0.486,0.563-0.972,1.126-1.458,1.688c3.938-0.612,7.919-0.933,11.636-2.316c1.442-0.537,0.27-0.3,1.476-0.427
				c1.318-0.138,2.73,0,4.052,0c2.296,0,4.592,0,6.888,0c0.543,0,1.623-0.492,1.598-1.165c-0.127-3.501-1.138-8.081-0.418-11.501
				c-0.157,0.748,0.333-0.413,0.577-0.81c0.587-0.956,1.261-1.869,1.888-2.799c1.084-1.607,2.168-3.214,3.252-4.821
				c-0.776,0.137-1.553,0.274-2.329,0.411c5.551,3.008,11.102,6.016,16.652,9.025c1.632,0.884,3.605,2.44,5.429,2.929
				c2.403,0.645,5.65,0.082,8.092,0.082c2.521,0,5.494,0.43,7.967-0.137c2.737-0.628,5.539-2.175,8.14-3.199
				c1.809-0.712,4.761-1.247,6.039-2.817c1.625-1.996,2.344-5.566,3.351-7.959c0.286-0.678-0.262-1.097-0.881-1.207
				c-2.11-0.375-4.22-0.75-6.329-1.125c0.293,0.402,0.587,0.805,0.881,1.207c2.526-3.981,5.565-7.907,7.684-12.112
				c1.508-2.992,1.004-6.987,1.182-10.315c0.215-4.033,0.004-8.376,0.735-12.346c0.828-4.502,2.63-8.996,3.915-13.395
				c-0.657,0.386-1.314,0.772-1.971,1.159c2.961,0.504,6.103,0.755,9.001,1.532c1.302,0.349-0.188-0.307,1.24,0.662
				c1.18,0.801,2.282,1.748,3.414,2.615c5.16,3.952,10.319,7.904,15.479,11.856c0.74,0.567,2.483,0.073,2.585-0.945
				c0.711-7.046,1.745-14.133,2.14-21.201c0.067-1.199,0.197-1.589,0.248-1.692c0.961-1.972,2.896-3.541,4.056-5.409
				c1.268-2.042,0.941-3.742,0.941-6.231c0-3.878,0.456-8.033,0-11.879c-0.228-1.925-1.071-3.651-1.777-5.487
				c-2.578-6.704-5.157-13.408-7.735-20.111c-0.27,0.411-0.54,0.823-0.809,1.234c2.04-0.844,4.079-1.688,6.119-2.532
				c0.412-0.17,0.986-0.723,0.809-1.234c-2.532-7.314-5.064-14.628-7.595-21.942c-0.196-0.566-0.797-0.664-1.318-0.664
				c-1.336,0-2.672,0-4.009,0c0.439,0.221,0.879,0.443,1.318,0.664c-2.11-22.716-4.22-45.432-6.329-68.148
				c-0.039-0.419-0.614-0.61-0.945-0.658c-13.784-1.969-27.569-3.938-41.353-5.908c0.321,0.311,0.642,0.622,0.964,0.933
				c0.422-14.206,0.844-28.413,1.266-42.619c-0.533,0.388-1.065,0.777-1.598,1.165c2.391,0,4.782,0,7.173,0
				c0.541,0,1.626-0.492,1.598-1.165c-0.844-20.676-1.688-41.353-2.532-62.029c-0.036-0.878-1.006-1.083-1.731-0.872
				c-6.751,1.969-13.503,3.938-20.255,5.908c0.571,0.199,1.142,0.397,1.713,0.596c-3.719-11.768-7.438-23.536-11.157-35.304
				c-0.956-3.025-1.519-7.376-3.405-9.954c-3.056-4.177-8.543-7.683-12.376-11.129c-5.141-4.623-10.217-9.334-15.43-13.876
				c-1.477-1.286-1.007-0.741-1.504-2.083c-1.569-4.237-3.037-8.481-5.013-12.557c-3.229-6.66-8.105-11.573-15.865-8.598
				c-4.564,1.75-8.963,4.3-13.367,6.413c-6.667,3.199-13.334,6.397-20,9.596c-1.041,0.499-4.338,1.41-2.044,1.299
				c-0.923,0.045-1.911-0.135-2.831-0.201c-12.28-0.87-24.559-1.741-36.839-2.611c-14.951-1.06-29.903-2.119-44.854-3.179
				c-5.422-0.384-10.167-0.929-15.469,0.036c-26.861,4.89-53.723,9.78-80.584,14.67c-0.752,0.137-1.454,0.871-1.063,1.62
				c1.478,2.839,2.956,5.677,4.434,8.516c0.963,1.85,1.543,3.656,3.189,4.816c5.37,3.784,12.521,5.012,18.023,8.613
				c-2.021-1.323,0.268-1.21-0.893-0.488c-0.433,0.27-0.874,1.338-1.148,1.759c-1.327,2.033-2.655,4.065-3.982,6.098
				c-4.209,6.446-8.419,12.893-12.628,19.339c-8.516,13.042-17.032,26.083-25.549,39.125c-1.344,2.058-2.718,3.657-3.133,6.032
				c-1.271,7.278-1.521,14.886-2.271,22.234c-0.417,4.082-0.834,8.165-1.251,12.247c-0.147,1.437-0.485,2.846-0.102,4.197
				c0.968,3.415,3.95,7.062,5.679,10.155c1.609,2.878,3.219,5.755,4.828,8.633c0.229-0.494,0.458-0.988,0.688-1.482
				c-8.487,4.858-16.974,9.716-25.461,14.574c-0.528,0.302-1.09,0.841-0.688,1.482c11.3,18.022,22.6,36.044,33.9,54.066
				C773.001,535.027,775.767,533.934,774.968,532.66z"/>
		</g>
	</g>
	<g>
		<path class="st1" d="M1006.708,742.311l-23.841,20.044l5.064,10.233l-33.968,9.389l-10.971,9.283h-7.033l-1.407,3.094h-7.877
			l-33.757-26.021l-19.411-22.083l-82.706-58.513l-3.376-37.977l-6.47-4.501c0,0,4.22-7.033,3.376-7.033
			s-16.597-13.784-16.597-13.784l28.623-27.836l-15.85-21.524l14.478-5.988l-21.593-34.64c0,0,1.821-1.339,2.225-1.385
			s11.245-0.792,11.245-0.792l20.696-5.794l0.403,9.064l18.461,16.562l9.178,19.094l11.306,1.231l27.67,14.138l18.819,18.793
			l8.877-0.404l10.746-20.478l8.892,0.434l0.195,12.87l26.162,3.024l0.618-12.234l23.223-1.761l0.576-5.569l3.995-1.112
			l1.907,22.103l11.666,5.817l34.39,3.516l-1.266,16.597l-10.62,1.447l-1.407,9.102l-6.23,8.782l-5.242,0.501l-14.057-1.266
			l-4.431,2.954l5.14,11.664l-2.819,7.114l-6.33,0.422c0,0,2.64,6.358,0.199,8.54c-2.441,2.182-10.962,7.912-10.962,7.912
			s-1.313,1.093-1.375,1.397c-0.062,0.304-1.444,7.83-1.444,7.83l15.165,17.573l5.541-0.775l12.462,5.312l0.036,11.498l6.659,1.712
			L1006.708,742.311z"/>
		<g>
			<path d="M1005.56,742.122c-7.947,6.681-15.894,13.362-23.841,20.044c-0.112,0.094-0.397,0.382-0.3,0.577
				c1.688,3.411,3.376,6.822,5.064,10.233c0.424-0.348,0.849-0.696,1.273-1.044c-10.454,2.889-20.908,5.779-31.363,8.669
				c-3.596,0.994-5.397,2.725-8.319,5.197c-1.851,1.566-4.618,3.185-6.071,5.137c0.405-0.544,1.725,0.153,0.955-0.437
				c-0.366-0.28-1.892,0-2.425,0c-1.332,0-2.663,0-3.995,0c-0.681,0-1.712,0.276-2.023,0.962c-0.469,1.031-0.938,2.063-1.407,3.094
				c0.674-0.321,1.349-0.641,2.023-0.962c-2.179,0-5.649,0.665-7.722,0c1.352,0.434-1.5-1.418-2.033-1.829
				c-5.007-3.859-10.014-7.719-15.021-11.579c-6.994-5.391-14.184-10.235-20.012-16.865c-5.286-6.013-10.308-13.669-16.723-18.494
				c-7.629-5.738-15.62-11.051-23.413-16.564c-11.634-8.231-23.268-16.462-34.902-24.693c-4.656-3.294-9.312-6.588-13.969-9.883
				c-2.628-1.859-5.799-3.572-8.159-5.772c-1.503-1.402-1.133-2.863-1.361-5.434c-0.591-6.643-1.181-13.286-1.771-19.929
				c-0.256-2.881-0.512-5.762-0.768-8.643c-0.098-1.108,0.17-3.491-0.4-4.503c-0.753-1.338-3.561-2.775-4.894-3.528
				c-1.777-1.004-1.363-0.466-1.128-1.573c0.279-1.317,1.578-2.715,2.175-3.957c1.087-2.265,0.96-2.194-0.719-3.574
				c-2.677-2.2-5.365-4.381-8.001-6.633c-2.19-1.871-4.958-3.714-6.836-5.906c-0.65-0.758-0.748,0.984-0.128-0.054
				c0.44-0.736,1.458-1.418,2.07-2.013c8.697-8.457,17.393-16.915,26.09-25.372c0.227-0.221,0.421-0.44,0.202-0.737
				c-5.283-7.175-10.566-14.349-15.85-21.524c-0.265,0.359-0.531,0.718-0.796,1.077c4.826-1.996,9.652-3.992,14.478-5.988
				c0.411-0.17,1.121-0.556,0.796-1.077c-3.078-4.938-6.156-9.876-9.234-14.813c-2.356-3.779-4.712-7.559-7.068-11.338
				c-1.391-2.232-4.049-5.168-4.808-7.713c-0.3-1.006-1.18-0.449,0.534-0.906c1.827-0.487,4.13-0.294,6.016-0.425
				c2.16-0.15,4.23-0.213,6.322-0.715c6.595-1.581,13.104-3.668,19.636-5.497c-0.542-0.089-1.083-0.178-1.625-0.267
				c0.114,2.557-0.425,6.158,0.38,8.562c0.491,1.463,2.092,2.431,3.283,3.5c4.81,4.316,10.456,8.374,14.728,13.213
				c3.044,3.449,5.039,9.853,7.142,14.228c0.639,1.329,1.421,4.42,2.606,5.378c1.294,1.045,5.511,0.74,7.041,0.907
				c5.267,0.573,8.503,2.511,13.519,5.074c5.855,2.991,12.124,5.627,17.73,9.059c3.366,2.061,6.994,6.629,10.094,9.725
				c2.484,2.481,4.968,4.961,7.452,7.442c1,0.999,1.569,1.812,2.857,2.162c2.053,0.557,7.029,0.196,9.111-0.424
				c1.725-0.514,1.972-1.531,2.777-3.065c3.209-6.116,6.419-12.232,9.628-18.348c-0.674,0.321-1.349,0.641-2.023,0.962
				c1.797,0.088,3.595,0.176,5.392,0.263c0.79,0.039,2.285-0.185,3.007,0.147c0.016,0.007-0.213-0.545-0.361,0.711
				c-0.446,3.804,0.121,7.972,0.179,11.81c0.003,0.209,0.416,0.334,0.549,0.35c8.721,1.008,17.441,2.016,26.162,3.024
				c0.532,0.061,2.303-0.133,2.344-0.938c0.206-4.078,0.412-8.156,0.618-12.234c-0.553,0.312-1.106,0.624-1.66,0.935
				c7.741-0.587,15.482-1.174,23.223-1.761c0.432-0.033,1.602-0.374,1.66-0.935c0.16-1.546,0.778-3.603,0.53-5.122
				c0.009,0.055-1.953,0.393,0.351-0.029c0.812-0.149,1.625-0.452,2.423-0.674c-0.542-0.089-1.083-0.178-1.625-0.267
				c0.547,6.336,1.094,12.672,1.64,19.008c0.169,1.959-0.086,2.622,1.262,3.726c2.495,2.044,6.772,3.584,9.744,4.858
				c3.991,1.711,9.004,1.447,13.298,1.886c7.115,0.727,14.43,1.034,21.488,2.197c1.557,0.257,0.439-0.567,0.487,0.232
				c0.101,1.676-0.268,3.511-0.395,5.183c-0.273,3.585-0.547,7.17-0.82,10.755c0.553-0.312,1.106-0.624,1.66-0.935
				c-3.54,0.482-7.08,0.965-10.62,1.447c-0.459,0.063-1.569,0.349-1.66,0.935c-0.542,3.509-0.475,7.468-2.389,10.438
				c-1.282,1.989-3.609,4.076-4.451,6.274c-0.108,0.283-0.413,0.491-0.543,0.765c0.277-0.586,1.742-0.025,0.586-0.45
				c-0.919-0.337-2.932,0.339-3.901,0.373c0.024-0.001-2.852-0.224-4.062-0.333c-2.661-0.24-5.323-0.481-7.984-0.719
				c-3.524-0.315-5.073,1.163-8.062,3.155c-0.188,0.125-0.706,0.44-0.566,0.758c1.467,3.329,3.357,6.688,4.471,10.146
				c0.926,2.873-1.023,5.611-2.145,8.444c0.674-0.321,1.349-0.641,2.023-0.962c-2.11,0.141-4.22,0.281-6.33,0.422
				c-0.391,0.026-2.34,0.368-2.029,1.15c0.746,1.874,1.812,4.823,1.078,6.811c-0.933,2.527-4.895,4.468-6.976,5.926
				c-2.665,1.867-5.577,3.08-6.488,6.275c-0.784,2.754-1.688,5.484-0.259,7.801c2.308,3.74,6.117,7.088,8.987,10.414
				c1.385,1.605,3.685,5.69,5.788,6.375c1.266,0.413,3.538-0.392,4.789-0.577c1.562-0.231,0.79-0.139,0.808-0.135
				c0.722,0.179,1.471,0.627,2.153,0.918c2.275,0.97,9.06,3.054,9.706,4.375c0.676,1.383,0.015,4.775,0.02,6.309
				c0.005,1.598,0.01,3.197,0.015,4.795c0.001,0.222,0.419,0.316,0.549,0.35c1.731,0.445,3.83,0.654,5.443,1.4
				c1.252,0.578,0.816-0.169,1.143,1.904c0.554,3.511,1.724,7.029,2.57,10.482c0.223,0.911,3.128,0.164,2.898-0.776
				c-1.016-4.141-2.031-8.282-3.046-12.424c-0.057-0.234-0.36-0.301-0.549-0.35c-1.552-0.399-3.1-0.823-4.658-1.198
				c-2.161-0.519-1.429,0.187-1.457-1.616c-0.052-3.348-0.021-6.699-0.031-10.047c-0.051-0.137-0.147-0.229-0.286-0.278
				c-4.449-1.896-9.928-5.74-14.845-5.18c-1.082,0.123-2.32,0.536-3.405,0.477c-1.524-0.083,0.724,0.469,0.292,0.119
				c-0.875-0.711-1.621-1.878-2.35-2.723c-2.75-3.186-5.499-6.372-8.249-9.558c-1.221-1.415-4.056-4.132-4.228-5.337
				c-0.413-2.902,1.056-7.114,3.242-8.834c3.174-2.497,7.479-4.282,10.142-7.356c2.218-2.56,1.252-6.231,0.102-9.117
				c-0.676,0.383-1.352,0.767-2.029,1.15c2.11-0.141,4.22-0.281,6.329-0.422c0.658-0.044,1.738-0.242,2.023-0.962
				c0.838-2.115,2.846-5.16,2.787-7.387c-0.069-2.611-2.939-6.67-3.992-9.06c-0.267-0.606-0.751-1.348-0.882-2.002
				c-0.249-1.235-0.982,1.087-0.102-0.221c0.438-0.651,1.78-1.009,2.336-1.558c1.272-1.253,1.626-0.384-0.175-0.548
				c3.495,0.319,6.991,0.63,10.487,0.944c4.418,0.398,9.364,1.149,12.146-2.773c1.543-2.175,4.023-4.66,5.034-7.146
				c1.067-2.624,0.971-6.285,1.407-9.102c-0.553,0.312-1.106,0.624-1.66,0.935c3.54-0.482,7.08-0.964,10.62-1.447
				c0.422-0.057,1.616-0.359,1.66-0.935c0.422-5.532,0.844-11.065,1.266-16.597c0.026-0.335-0.219-0.505-0.543-0.538
				c-5.732-0.586-11.463-1.172-17.195-1.758c-5.225-0.534-12.437-0.411-17.018-1.728c-3.073-0.884-6.2-3.091-9.062-4.518
				c-2.714-1.353-2.23-0.944-2.5-4.074c-0.547-6.336-1.094-12.672-1.64-19.008c-0.049-0.572-1.37-0.338-1.625-0.267
				c-1.332,0.371-2.664,0.741-3.995,1.112c-0.339,0.094-1.22,0.388-1.268,0.856c-0.192,1.856-0.384,3.713-0.576,5.569
				c0.553-0.312,1.106-0.624,1.66-0.935c-7.741,0.587-15.482,1.174-23.223,1.761c-0.408,0.031-1.632,0.38-1.66,0.935
				c-0.206,4.078-0.412,8.156-0.618,12.234c0.781-0.313,1.563-0.625,2.344-0.938c-7.231-0.836-14.463-1.672-21.694-2.508
				c-0.951-0.11-3.239,0.069-4.048-0.468c-0.847-0.561,0.448,0.682,0.128,0.208c-0.185-0.273-0.06-1.624-0.029-1.918
				c0.374-3.51-0.111-7.326-0.165-10.859c-0.005-0.34-0.672-0.364-0.869-0.374c-2.964-0.145-5.928-0.29-8.892-0.434
				c-0.707-0.035-1.679,0.306-2.023,0.962c-3.582,6.826-7.164,13.652-10.746,20.478c0.674-0.321,1.349-0.641,2.023-0.962
				c-2.36,0.107-4.77,0.07-7.117,0.323c-0.854,0.092-1.993-0.313-1.075,0.208c-0.513-0.291-1.021-1.02-1.442-1.44
				c-4.207-4.201-8.414-8.402-12.62-12.603c-1.907-1.904-3.601-3.968-5.914-5.321c-4.53-2.651-9.429-4.818-14.103-7.206
				c-3.962-2.025-8.137-4.913-12.366-6.318c-3.407-1.133-8.524,0.329-11.613-1.366c0.766,0.42-0.961-2.591-1.322-3.343
				c-1.433-2.982-2.866-5.963-4.3-8.945c-1.329-2.765-2.247-5.614-4.443-7.736c-4.518-4.367-9.386-8.421-14.063-12.617
				c-1.28-1.148-2.653-2.046-3.099-3.463c-0.75-2.383-0.256-5.76-0.368-8.278c-0.025-0.571-1.391-0.333-1.625-0.267
				c-6.612,1.851-13.198,3.887-19.857,5.559c-1.355,0.34,0.485,0.128-1.607,0.233c-2.11,0.106-4.221,0.291-6.329,0.44
				c-3.073,0.217-4.785,0.357-7.346,2.205c-0.274,0.198-0.379,0.453-0.202,0.737c7.198,11.547,14.395,23.093,21.593,34.64
				c0.265-0.359,0.531-0.718,0.796-1.077c-4.826,1.996-9.652,3.992-14.478,5.988c-0.374,0.155-1.164,0.578-0.796,1.077
				c3.497,4.75,6.995,9.499,10.492,14.249c1.597,2.168,3.802,4.418,5.025,6.824c0.519,1.021,0.631-0.853,0.17,0.069
				c-0.291,0.582-1.296,1.26-1.756,1.707c-8.834,8.591-17.669,17.183-26.503,25.774c-0.177,0.173-0.481,0.493-0.202,0.738
				c3.974,3.475,7.965,6.935,12.031,10.302c0.765,0.633,4.373,2.651,4.633,3.56c0.358,1.25-2.672,5.139-3.431,6.411
				c-0.086,0.143-0.207,0.408-0.011,0.544c2.304,1.603,5.66,2.998,6.473,5.476c1.152,3.514,0.744,8.374,1.071,12.044
				c0.477,5.365,0.954,10.73,1.431,16.095c0.191,2.148-0.307,6.695,0.766,8.62c1.455,2.611,6.909,5.057,9.291,6.742
				c7.751,5.484,15.502,10.967,23.252,16.451c15.511,10.974,31.021,21.947,46.532,32.92c9.365,6.626,14.938,17.231,23.362,24.893
				c7.266,6.608,15.82,12.194,23.596,18.189c2.979,2.296,6.111,5.564,9.463,7.295c2.565,1.324,6.243,0.585,9.13,0.585
				c0.681,0,1.712-0.276,2.023-0.962c0.469-1.031,0.938-2.063,1.407-3.094c-0.674,0.321-1.349,0.641-2.023,0.962
				c4.834,0,7.428,0.555,11.075-2.531c2.512-2.125,5.443-4.122,7.701-6.516c0.687-0.729,1.356-0.892,0.125-0.382
				c0.605-0.251,1.316-0.364,1.947-0.538c10.627-2.937,21.253-5.874,31.88-8.812c0.281-0.078,1.527-0.531,1.273-1.044
				c-1.347-2.723-4.636-6.906-4.89-9.882c-0.079-0.924-0.58,0.803-0.195-0.008c0.151-0.317,0.88-0.759,1.15-0.967
				c1.48-1.141,2.875-2.417,4.306-3.62c6.035-5.074,12.071-10.148,18.106-15.222C1009.092,741.461,1006.223,741.564,1005.56,742.122
				z"/>
		</g>
	</g>
	<path class="st2" d="M1013.665,739.121l30.317,3.19l9.987-3.19v-3.984h4.22l8.721,11.956c0,0,2.672,6.33,3.094,6.47
		c0.422,0.141,5.345,5.064,5.345,5.064h7.455l1.688-6.048l15.331-0.985l0.633,2.672l3.938-3.376l1.828,0.281l5.978,4.009
		l5.275,0.211l3.516-0.914l5.767-6.048h9.283l7.595,3.27v11.815l12.343,0.738l2.215-7.384h6.962l2.954,3.376l15.085,0.211
		c0,0,4.536,8.017,4.888,8.228s11.745,1.477,11.745,1.477s1.055,3.516,1.266,3.587c0.211,0.07,5.626,0.633,5.415,0.914
		c-0.211,0.281-0.492,15.472-0.492,15.472h-11.674l-2.672,3.094l4.853,15.402l-2.602,11.464l-9.459-0.563l-6.329,8.756l-1.899,4.536
		l-10.022,7.912l-2.215,12.132l-8.334,1.477l-16.14,10.866l0.246,12.975l-8.791,4.009l-9.213,11.674l-3.938-1.969l-14.628-0.422
		l-11.253-13.081l-7.455,0.141l-19.833-13.011l-7.244,5.345l-23.911-7.455l-21.098-15.191l-13.608-15.296l-37.661-21.837
		l-18.989-18.145l0.176-1.336l6.961-5.676l4.679-3.959l33.853-9.621l-4.949-10l23.947-20.044L1013.665,739.121z"/>
	<polygon class="st2" points="1206.018,790.134 1222.615,789.079 1228.945,787.742 1234.431,788.516 1240.76,788.938 
		1243.222,795.69 1246.597,798.96 1246.597,806.028 1242.167,808.771 1237.103,810.564 1239.213,814.502 1241.112,816.999 
		1236.365,820.691 1237.244,838.519 1241.463,844.989 1240.901,850.334 1246.597,855.398 1249.903,861.587 1258.623,866.369 
		1261.999,875.371 1261.999,885.78 1256.654,893.867 1253.841,900.408 1253.841,905.472 1242.307,908.566 1237.525,920.944 
		1223.178,940.073 1218.114,951.607 1217.552,976.081 1216.427,980.863 1210.238,976.925 1203.767,974.674 1198.704,977.487 
		1192.796,972.143 1181.544,978.613 1172.542,980.863 1168.322,974.674 1160.445,971.58 1160.445,965.672 1153.694,960.046 
		1145.255,961.171 1134.283,962.297 1114.029,962.297 1117.123,958.358 1125.281,956.108 1124.156,951.888 1115.436,941.479 
		1116.561,914.755 1126.407,904.628 1126.407,900.408 1119.993,892.981 1130.626,882.967 1139.769,878.184 1139.523,865.209 
		1154.934,854.834 1163.75,852.91 1166.212,840.735 1176.234,832.823 1183.653,820.651 1193.922,820.093 1196.259,809.797 
		1191.671,793.228 1195.328,790.134 	"/>
	<path class="st2" d="M1193.429,755.392l-10.76,4.642l-13.921,0.22l-3.591-3.385h-6.681l-2.391,7.754l-12.228-1.095l-0.22-11.828
		l-7.519-3.237h-8.463l-6.734,6.473l-4.115,0.43l-4.808-0.32l-5.476-3.672l-1.803-0.432l-4.2,3.271l-0.697-2.618l-15.331,0.985
		l-1.688,6.048h-7.455l-5.345-5.064l-3.529-7.065l-8.287-11.361h-4.22v3.745l-9.987,3.428l-30.317-3.19l-0.4-23.392l-3.73-8.695
		l9.304-2.314l4.642-1.442c0,0,6.787,0,7.068,0c0.281,0,2.532,0,2.532,0s-1.354-7.102-0.368-10.123s5.924-10.342,5.924-10.342
		l22.136,12.132l14.706-0.423l13.46-4.904l2.866-8.211l-6.259-1.113c0,0,7.318-9.786,8.257-13.629
		c0.938-3.843,1.047-19.622,1.047-19.622l3.888-14.072l8.564,0.846l10.601,7.213l10.754,8.237l1.688,4.149l16.668,0.422
		l0.352,13.925l-2.25,5.626l9.072,6.47l-4.431,4.958l6.435,2.532l3.587,6.54l-3.059,4.907l5.591,3.955l14.241,1.16l9.178,0.422
		l9.494,8.545L1187.1,722.9l-0.633,4.747l6.435,3.27l-1.266,3.534l-6.066,0.264c0,0,0.739,6.224,0.949,6.224
		S1193.429,755.392,1193.429,755.392z"/>
	<g>
		<path class="st1" d="M1192.902,730.917l8.65-3.481l5.802-5.486h10.655c0,0,6.857,5.31,7.279,5.45
			c0.422,0.141,28.834,5.345,29.678,5.486c0.844,0.141,17.723,0,17.723,0l9.143-13.222l-3.798-6.752l4.782-6.892l-1.406-5.064
			l6.611-2.161l2.954,3.568l12.589-5.099l-7.068-12.87l2.532-5.486l11.815-1.582l-0.844-7.173l-3.903-1.688h-5.486
			c0,0-11.921,3.798-12.343,4.536s-2.004,2.743-2.004,2.743l-12.659-3.481c0,0,4.431-3.094,4.431-3.798
			c0-0.703-1.125-9.705-1.125-9.705l-15.613-2.11h-24.755l-1.969-6.611l9.565-9.283l-1.828-8.299l-5.064-2.251l1.828-5.486
			l4.642-1.547l2.391-10.127c0,0-5.908-8.861-6.611-9.143s-16.175-5.908-16.175-5.908l-0.422-6.611l6.892-1.125l4.36-22.083
			l-12.378,2.391l-10.971-12.237l-85.337-4.141l7.203,20.808l-6.119,2.532l9.166,23.832l0.328,17.31l-5.064,7.595l-2.321,22.997
			l1.481,3.64l16.875,0.931l0.352,13.925l-2.015,5.038l9.47,7.269l-5.011,4.768l6.707,3.102l3.263,5.949l-2.637,4.907l5.169,3.955
			l23.419,1.582l9.494,8.228l-7.717,9.838l-1.039,5.248L1192.902,730.917z"/>
		<g>
			<path d="M1193.532,731.73c2.927-1.178,6.482-2.03,9.098-3.783c1.37-0.918,2.554-2.408,3.746-3.536
				c0.663-0.627,1.31-1.444,2.068-1.956c-1.36,0.917-1.01,0.394,0.435,0.514c2.255,0.187,4.656,0.056,6.922,0
				c0.544-0.013,1.404-0.16,1.948,0c-1.683-0.494,0.439,0.801,0.831,1.101c2.215,1.701,4.27,3.744,6.964,4.503
				c8.181,2.304,17.046,3.168,25.408,4.694c6.541,1.194,13.327,0.815,19.959,0.651c2.858-0.071,3.303-1.097,4.907-3.417
				c2.464-3.564,4.929-7.128,7.394-10.692c0.167-0.242,0.076-0.547-0.05-0.771c-0.964-1.713-1.792-3.812-3.009-5.349
				c-0.231-0.291-0.656-0.888-0.714-1.27c0.03,0.196-0.195,1.254,0.105,0.451c0.379-1.015,1.483-2.137,2.086-3.007
				c0.75-1.08,2.372-2.637,2.651-3.965c0.303-1.441-1.024-3.897-1.422-5.33c-0.398,0.446-0.796,0.892-1.195,1.338
				c2.204-0.72,4.407-1.441,6.611-2.161c-0.528-0.108-1.056-0.215-1.584-0.323c0.985,1.189,1.969,2.378,2.954,3.568
				c0.471,0.569,1.369,0.425,1.96,0.185c4.196-1.7,8.393-3.399,12.589-5.099c0.584-0.237,1.028-0.839,0.699-1.439
				c-1.255-2.285-2.51-4.57-3.764-6.854c-0.81-1.475-1.554-3.029-2.447-4.455c-0.2-0.319-0.629-0.892-0.706-1.285
				c-0.052-0.265-0.056,0.77,0.304-0.382c0.326-1.044,2.064-3.16,1.96-4.246c-0.014-0.145-1.911,0.088-0.712,0.427
				c0.516,0.146,1.468-0.197,2.006-0.269c3.056-0.409,6.113-0.819,9.169-1.228c0.726-0.097,1.693-0.525,1.589-1.407
				c-0.286-2.435,0.133-6.199-1.664-7.825c-2.171-1.964-6.188-1.845-8.82-1.667c-3.046,0.206-6.02,1.542-8.894,2.557
				c-3.898,1.378-5.319,2.1-7.855,5.343c0.683-0.183,1.366-0.366,2.049-0.549c-4.22-1.16-8.439-2.321-12.659-3.481
				c0.035,0.523,0.071,1.046,0.106,1.57c1.758-1.239,4.532-2.711,4.921-4.945c0.494-2.841-0.759-6.695-1.117-9.57
				c-0.052-0.414-0.606-0.583-0.937-0.627c-5.918-0.8-11.938-2.109-17.918-2.113c-7.607-0.005-15.215,0-22.822,0
				c0.436,0.21,0.873,0.42,1.309,0.63c-0.458-1.536-0.845-3.114-1.377-4.624c-0.721-2.045-1.132-1.1,0.408-2.41
				c1.615-1.373,3.082-2.991,4.603-4.468c0.944-0.917,3.162-2.315,3.648-3.54c0.784-1.98-0.547-6.032-1.267-8.029
				c-0.381-1.054-0.234-1.074-1.025-1.757c-0.558-0.481-1.684-0.749-2.358-1.048c-0.647-0.288-2.414-1.44-2.146-0.636
				c0.306,0.918,0.761-1.234,0.912-1.687c0.305-0.915,0.558-1.864,0.919-2.758c0.386-0.956-1.365,0.803-0.516,0.211
				c0.232-0.162,0.735-0.269,1.006-0.335c0.913-0.222,2.151-0.514,2.974-0.991c2.237-1.298,2.134-4.205,2.717-6.674
				c0.818-3.466,1.49-4.318-0.443-7.16c-1.652-2.429-3.324-5.878-5.857-7.457c-3.561-2.22-8.71-3.188-12.653-4.623
				c-0.771-0.281-1.842-0.482-2.528-0.92c-1.183-0.754-0.065,0.339-0.264-0.184c-0.625-1.646-0.28-4.391-0.394-6.175
				c-0.53,0.469-1.059,0.938-1.589,1.407c2.297-0.375,4.595-0.75,6.892-1.125c0.654-0.107,1.458-0.398,1.605-1.141
				c1.453-7.361,2.907-14.722,4.36-22.083c0.184-0.932-1.203-0.927-1.719-0.827c-4.126,0.797-8.252,1.594-12.378,2.391
				c0.528,0.108,1.056,0.215,1.584,0.323c-2.473-2.758-4.946-5.517-7.419-8.275c-1.278-1.426-2.632-3.712-4.468-4.355
				c-1.214-0.425-3.16-0.153-4.422-0.215c-3.125-0.152-6.25-0.303-9.375-0.455c-18.668-0.906-37.336-1.811-56.004-2.717
				c-5.146-0.25-10.291-0.499-15.437-0.749c-0.642-0.031-2.304,0.411-1.96,1.404c2.401,6.936,4.802,13.872,7.203,20.808
				c0.273-0.4,0.546-0.8,0.818-1.2c-2.04,0.844-4.079,1.688-6.119,2.532c-0.383,0.159-1.01,0.703-0.818,1.2
				c2.642,6.87,5.285,13.74,7.927,20.61c1.005,2.614,1.23,3.288,1.282,6.044c0.078,4.146,0.871,9.019,0.249,13.118
				c-0.433,2.851-3.408,5.129-4.677,8.012c-0.909,2.065-0.77,4.693-0.997,6.943c-0.694,6.878-2.831,14.161-0.193,20.647
				c0.158,0.388,0.519,0.604,0.937,0.627c5.625,0.31,11.25,0.621,16.875,0.931c-0.318-0.298-0.635-0.596-0.953-0.894
				c0.09,3.58,0.181,7.16,0.271,10.74c0.081,3.205-0.626,4.898-1.849,7.958c-0.157,0.392-0.081,0.699,0.257,0.958
				c2.544,1.953,5.359,5.083,8.275,6.352c0.271,0.118,0.903,0.581,1.111,0.853c-0.963-1.259,0.141-0.793-1.503,0.287
				c-1.286,0.845-2.386,2.27-3.505,3.335c-0.528,0.502-0.183,1.091,0.36,1.343c1.656,0.766,3.314,1.527,4.968,2.298
				c1.689,0.787,1.394,0.506,2.234,2.273c0.498,1.047,1.245,2.004,1.686,3.075c0.193,0.468,0.36,1.361,0.455,0.484
				c-0.156,1.433-1.852,3.446-2.547,4.739c-0.198,0.368-0.052,0.722,0.257,0.958c1.747,1.336,3.683,3.464,5.78,4.156
				c1.729,0.57,4.269,0.288,6.072,0.41c3.611,0.244,7.222,0.488,10.834,0.732c1.517,0.102,5.592,0.101,6.22,0.371
				c1.206,0.517,4.633,4.158,6.261,5.569c0.877,0.76,2.154,1.527,2.84,2.462c-0.83-1.13,0.434-1.29-0.522-0.487
				c-0.467,0.392-0.938,1.195-1.306,1.665c-1.848,2.355-4.447,4.786-5.833,7.435c-0.892,1.706-0.986,3.951-1.361,5.845
				c-0.048,0.244,0.121,0.58,0.342,0.692c2.145,1.09,4.29,2.18,6.435,3.27c1.072,0.545,3.636-0.922,2.245-1.629
				c-1.744-0.886-4.502-1.635-5.874-2.985c-0.981-0.965,0.046,0.766-0.135-0.014c-0.084-0.362,0.295-1.488,0.35-1.767
				c0.147-0.745,0.382-2.51,0.489-2.749c1.26-2.824,5.318-6.753,7.574-9.629c0.344-0.438,0.336-0.849-0.082-1.211
				c-3.175-2.752-6.944-7.761-11.122-8.498c-6.629-1.169-13.938-1.089-20.668-1.396c-2.21-0.101-3.07-1.244-5.466-3.238
				c-1.159-0.965-0.501,0.574-0.237-0.294c0.232-0.763,0.831-1.547,1.205-2.241c0.37-0.689,1.236-1.75,1.169-2.578
				c-0.115-1.428-2.518-5.425-3.589-6.375c-1.707-1.516-4.903-2.271-6.985-3.234c0.12,0.448,0.24,0.895,0.36,1.343
				c1.67-1.589,3.341-3.179,5.011-4.768c0.387-0.368,0.314-0.907-0.082-1.211c-2.338-1.795-4.677-3.59-7.015-5.385
				c-0.994-0.763-2.147-2.439-2.129-1.099c-0.018-1.342,1.348-2.911,1.692-4.23c1.175-4.509,0.106-10.139-0.012-14.827
				c-0.013-0.532-0.425-0.865-0.953-0.894c-3.136-0.173-6.273-0.346-9.409-0.519c-1.916-0.106-3.916-0.381-5.834-0.322
				c-0.344,0.011-1.145,0.058-1.454-0.08c1.031,0.462,0.31-0.12,0.018-1.202c-1.694-6.289,0.588-14.559,1.251-21.134
				c0.321-3.18,0.69-3.797,2.522-6.545c1.596-2.395,2.902-3.662,2.849-6.475c-0.106-5.6,0.951-12.301-1.086-17.597
				c-2.795-7.268-5.591-14.536-8.386-21.804c-0.273,0.4-0.546,0.8-0.818,1.2c2.04-0.844,4.079-1.688,6.119-2.532
				c0.398-0.165,0.993-0.695,0.818-1.2c-2.401-6.936-4.802-13.872-7.203-20.808c-0.653,0.468-1.307,0.936-1.96,1.404
				c15.709,0.762,31.418,1.524,47.127,2.287c9.841,0.477,19.682,0.955,29.523,1.432c2.581,0.125,5.162,0.261,7.744,0.376
				c0.85,0.038,1.178,0.354,0.177-0.286c1.427,0.913,2.687,2.997,3.811,4.25c1.99,2.22,5.221,7.731,8.299,8.322
				c1.652,0.317,4.474-0.858,6.095-1.171c2.226-0.43,4.451-0.86,6.677-1.29c-0.573-0.276-1.146-0.552-1.719-0.827
				c-1.453,7.361-2.907,14.722-4.36,22.083c0.535-0.38,1.07-0.76,1.605-1.141c-2.297,0.375-4.595,0.75-6.892,1.125
				c-0.765,0.125-1.646,0.504-1.589,1.407c0.141,2.204,0.281,4.407,0.422,6.611c0.017,0.27,0.398,0.482,0.604,0.558
				c3.082,1.121,6.164,2.243,9.245,3.366c2.831,1.032,5.771,1.57,7.775,3.769c1.544,1.695,4.955,6.354,5.043,7.526
				c0.217,2.891-1.615,6.838-2.288,9.692c0.403-0.357,0.807-0.714,1.21-1.071c-1.511,0.504-4.305,0.828-5.465,1.986
				c-1.253,1.251-1.571,4.173-2.13,5.852c-0.182,0.547,0.031,0.866,0.535,1.09c0.984,0.437,1.968,0.875,2.952,1.312
				c0.49,0.218,1.332,0.404,1.705,0.758c0.563,0.535-0.52-0.735-0.081,0.152c0.719,1.453,1.999,6.069,1.681,7.63
				c0.245-1.205-0.679,0.32-1.219,0.805c-1.01,0.908-1.956,1.898-2.93,2.844c-1.713,1.663-3.427,3.326-5.14,4.989
				c-0.184,0.179-0.321,0.528-0.245,0.785c0.656,2.204,1.313,4.407,1.969,6.611c0.167,0.561,0.824,0.63,1.309,0.63
				c8.051,0,17.901-0.618,25.055,0.088c2.708,0.267,5.412,0.731,8.109,1.096c1.744,0.236,5.106-0.003,6.64,0.897
				c-1.231-0.722-0.63,0.308-0.469,1.628c0.196,1.596,0.393,3.192,0.574,4.79c0.351,3.1-1.162,3.714-3.657,5.472
				c-0.598,0.422-0.755,1.333,0.106,1.57c4.22,1.16,8.439,2.321,12.659,3.481c0.663,0.182,1.601,0.024,2.049-0.549
				c2.208-2.825,3.408-3.355,6.905-4.57c2.307-0.802,5.098-1.927,7.155-2.087c2.559-0.199,5.252-0.384,7.132,1.401
				c0.616,0.585-0.452-0.688-0.036,0.282c0.252,0.587,0.219,1.864,0.291,2.474c0.16,1.358,0.319,2.716,0.479,4.074
				c0.53-0.469,1.059-0.938,1.589-1.407c-3.621,0.485-7.359,0.749-10.94,1.465c-2.769,0.554-3.101,2.286-4.207,4.92
				c-1.114,2.651-0.124,3.322,1.301,5.917c1.699,3.094,3.398,6.188,5.098,9.282c0.233-0.48,0.466-0.959,0.699-1.439
				c-4.196,1.7-8.392,3.399-12.589,5.099c0.653,0.062,1.307,0.124,1.96,0.185c-0.985-1.189-1.969-2.378-2.954-3.568
				c-0.352-0.425-1.09-0.484-1.584-0.323c-2.204,0.72-4.407,1.441-6.611,2.161c-0.527,0.172-1.39,0.634-1.195,1.338
				c0.319,1.149,0.574,2.335,0.962,3.461c0.594,1.73,0.659,0.477,0.043,1.749c-1.013,2.093-2.805,4.043-4.136,5.96
				c-0.248,0.357-0.35,0.624-0.125,1.023c0.935,1.662,1.806,3.382,2.813,5.001c1.086,1.747,1.244,0.889-0.016,2.355
				c-1.462,1.7-2.62,3.789-3.895,5.632c-1.043,1.508-3.165,3.552-3.67,5.307c-0.598,2.076-1.04-1.189,0.819,0.033
				c-0.261-0.172-1.274,0.049-1.565,0.012c-2.218-0.28-4.672,0.031-6.906,0.04c-3.208,0.013-6.497,0.238-9.678-0.206
				c-8.744-1.22-17.458-3.175-26.134-4.811c-3.289-0.62-4.946-2.48-7.971-4.711c-2.602-1.919-5.454-1.26-8.673-1.26
				c-4.797,0-5.435,0.392-8.938,3.704c-2.877,2.72-6.086,3.645-10.618,5.469C1190.426,730.848,1192.064,732.321,1193.532,731.73z"/>
		</g>
	</g>
	<path class="st2" d="M1246.001,613.486l-2.182,9.241l-4.747,1.995l-1.828,5.486l4.737,2.106l2.014,7.805l-9.424,9.922l1.899,6.375
		c0,0,26.891,0.515,27.292,0.569c0.4,0.054,13.147,1.777,13.147,1.777l1.125,9.705l14.136-4.114l6.751,0.809l10.76-3.868
		l18.461,1.899c0,0-8.861-9.072-8.967-9.494c-0.105-0.422,1.16-9.494,1.16-9.494l3.903-3.227l-4.642-7.111l0.422-12.87l-2.954-4.009
		l-4.642,0.633l-3.587-7.384h-2.954l-0.422-6.962l-5.697-2.321l-0.844-2.11l-8.861-3.165l-1.477-6.33l-7.226-4.009l-1.002-5.486
		l-6.752,1.055l-0.422,21.942l4.853,6.119l0.422,6.54l6.541,2.954l-0.211,3.798l-12.659,3.798l-7.173-1.899l-2.321-3.798h-5.064
		l-5.485-6.962L1246.001,613.486z"/>
	<path class="st3" d="M1335.844,664.457l-8.703-1.635l-7.965-9.125l1.16-9.494l3.903-3.227l-4.631-7.431l0.382-11.649l-2.924-4.91
		l-4.642,0.633l-3.367-6.932l-3.173-0.452l-0.422-6.962l-5.697-2.321l-0.844-2.11l-8.861-3.165l-1.477-6.33l-6.738-3.738
		c0,0-1.631-6.249-1.35-6.178c0.281,0.07,6.329,4.22,6.329,4.22l5.345-8.369l14.874-18.531l6.857-12.237l7.701-4.747l5.697-8.65
		h18.039l-3.587-3.798l5.275-5.908h4.853l6.962-10.971l12.026-3.376l8.439-2.11l3.376,1.688l5.064-3.798l1.688-6.962l5.275,1.266
		l19.692-18.707v-7.666l8.65-9.916l10.831,6.47v3.798l4.782,2.11l3.938-4.501v-7.033l8.721-8.861h5.767l10.127-6.33l8.017-1.407
		h5.486l7.877,8.017v6.33l-7.173-0.563l-11.393,10.268l-9.143,0.563l-4.079,3.235l-0.141,9.143l-11.815,1.407l-14.628,12.659
		l-0.352,9.002l-15.683,8.51l-9.987,2.813l-0.07,7.314l10.549,1.969l13.679,11.569l-0.633,6.857l-6.646,3.059l-0.422,4.642
		l4.958,1.055l-2.426,3.903l2.11,6.541l5.169,7.384l-1.16,4.114l-7.912,0.844c0,0-0.422,6.54,0,6.54
		c0.422,0-1.688,5.697-1.688,5.697l-1.266,3.798l-7.701,2.954l-4.536,3.165l-2.532-0.949l-4.431,3.692l-5.591,4.853l-11.604,4.853
		l-3.376-0.738l-5.486,2.321l-4.22,6.752l-6.541-0.211l-10.655-14.452l-8.334-1.793l-4.853,6.541l-0.105,15.402l-7.595,1.688
		l-1.688,4.853l2.954,2.321l0.422,6.435l4.642,10.866l-0.527,3.587l-6.54,0.738L1335.844,664.457z"/>
	<path class="st2" d="M1428.782,537.551l9.494-5.222l6.699-0.633l5.802,4.905l1.846,3.956l-0.527,19.674l7.384-5.45l5.345,5.45
		l6.47-1.336c0,0,4.782,3.657,6.189,4.501c1.406,0.844,8.439-1.125,8.439-1.125s3.376-5.064,4.782-0.281
		c1.406,4.782,3.657,5.345,3.657,5.345s1.688-7.595,3.376-6.47s3.938,6.47,3.938,6.47s3.376-1.407,3.376-3.657s0-6.822,0-8.896
		c0-2.075,0-3.763,0-3.763s0.281-9.002,3.376-7.314c3.094,1.688,7.314,3.376,7.314,3.376l6.47-9.283l-2.532-7.595l-0.281-7.314
		c0,0,3.376-2.532,4.501-2.532s2.532,11.253,2.532,11.253l9.283,3.094l5.626,12.94l-4.501,11.534l4.501,3.938l8.861-0.422
		l4.782,2.672l3.938-2.532l3.798,0.985l3.094,13.644l-9.846,14.91l-15.05-3.657l-10.408,1.125l-19.692,10.127l0.457,8.685h-6.857
		l-15.824,9.705l-10.971-5.697l-4.642-1.688l1.055-3.798l-10.127-0.422l-9.916,2.637l-4.853-4.958l-6.33-0.105l3.165-4.22
		l-17.195-23.068l1.431-5.348l-4.912-8.296l-1.811-7.022l2.092-4.231l-4.877-0.75l0.376-4.138l6.646-3.059L1428.782,537.551z"/>
	<polygon class="st2" points="1565.816,577.462 1573.201,575.528 1576.576,572.996 1586.809,576.266 1587.864,580.908 
		1591.873,583.545 1593.982,590.93 1604.637,593.883 1614.659,593.883 1619.828,598.349 1625.173,596.732 1625.806,590.754 
		1631.643,594.762 1638.395,595.325 1637.269,600.248 1628.267,603.202 1626.017,607.984 1619.828,609.109 1617.437,613.61 
		1609.701,613.61 1608.154,619.94 1608.716,624.722 1602.809,622.331 1600.136,625.566 1599.152,629.786 1594.369,628.379 
		1586.774,626.129 1581.148,619.096 1577.35,620.784 1581.851,627.535 1580.163,629.786 1583.257,633.583 1582.695,639.632 
		1578.756,642.585 1572.568,636.959 1568.77,636.819 1568.207,632.177 1562.018,631.614 1562.018,627.676 1552.454,623.878 
		1541.061,621.206 1537.544,620.362 1524.885,610.235 1521.088,610.375 1519.822,607.791 1517.712,607.791 1516.586,616.986 
		1514.336,618.955 1507.303,608.652 1511.664,609.25 1510.82,599.967 1525.315,592.512 1530.181,590.009 1540.076,588.011 
		1556.111,593.075 	"/>
	<g>
		<path class="st2" d="M1562.018,632.036l-1.336,4.712l-5.275,0.985l-0.844,6.259l-10.479,8.51l4.571,4.149l-5.134,4.149
			l-5.767-2.11l-1.336,5.626l-9.846,4.923l-4.36-1.477l-0.422-6.681l-3.024-2.11l-1.828,2.04v4.501l-9.635-3.587l-1.477-6.47
			c0,0-10.549-2.18-11.463-2.602c-0.914-0.422-10.338-2.215-10.338-2.215l-7.525,1.864l-10.409,5.767l-7.666,2.549l-3.692,3.27
			l-10.338,2.163c0,0-4.272,0.686-4.431,0.369s-5.064-6.857-5.064-6.857l0.527-10.18l-8.686-3.692l-7.806-3.13l-1.723-4.853
			c0,0,0.035-3.235,0.141-3.2c0.106,0.035,8.615-2.18,8.615-2.18l7.033-5.995l6.804-5.591l7.806-6.33l6.699-5.081l9.6-2.778
			l9.756,0.406l-0.481,3.887l15.41,7.469l15.376-9.589l3.331-0.486l6.885,10.298l2.426-1.982l1.097-8.966l2.479-0.51l0.897,3.094
			l4.167-0.457l12.29,10.444l18.909,5.104c1.855,0.737,3.71,1.473,5.565,2.21C1562.018,629.129,1562.018,630.583,1562.018,632.036z"
			/>
		<path class="st2" d="M1471.612,659.71l-2.743,8.228l0.739,8.756l0.633,6.435l6.541,0.844l-0.527,2.848l-0.949,4.009l-3.27,5.275
			l7.49,2.11l5.802-3.165l-2.321-4.958c0,0-2.637-2.426-2.321-2.637c0.316-0.211,4.009-3.692,4.009-3.692l-4.325-1.793l-2.743-5.908
			L1471.612,659.71z"/>
		<polygon class="st2" points="1530.582,685.872 1524.78,690.092 1525.729,694.417 1533.746,693.468 1534.696,690.145 		"/>
	</g>
</g>
</svg>
