<?xml version="1.0" encoding="utf-8"?>
<!-- Generator: Adobe Illustrator 22.1.0, SVG Export Plug-In . SVG Version: 6.00 Build 0)  -->
<svg version="1.1" xmlns="http://www.w3.org/2000/svg" xmlns:xlink="http://www.w3.org/1999/xlink" x="0px" y="0px" width="1920px"
	 height="1080px" viewBox="0 0 1920 1080" style="enable-background:new 0 0 1920 1080;" xml:space="preserve">
<style type="text/css">
	.st0{display:none;}
	.st1{opacity:0.2;}
	.st2{fill:#606060;}
	.st3{opacity:0.2;fill:#606060;}
	.st4{fill:#584A7E;}
	.st5{display:inline;opacity:0.2;fill:#584A7E;stroke:#000000;stroke-width:3;stroke-miterlimit:10;}
</style>
<g id="Слой_1" class="st0">
	
		<image style="display:inline;overflow:visible;" width="800" height="531" xlink:href="EDF21039.jpg"  transform="matrix(2.0339 0 0 2.0339 146.4407 0)">
	</image>
</g>
<g id="Слой_2">
	<g class="st1">
		<path class="st2" d="M483.609,96.137l-200.857,65.264l-2.813,384.835l83.268,6.189l9.002-12.659l-9.565-5.908l-0.563-18.567
			l-3.938-5.064l0.563-22.505l14.066-7.314c0,0,10.127-25.318,23.63-24.193c13.503,1.125,19.129,1.125,19.129,1.125h10.69
			l1.125-6.751l6.189-2.251l1.125-13.503l-2.813-8.439l5.064-1.688l1.688-3.938l6.751,0.563l3.938,4.501l10.127-0.563l10.69,5.626
			v9.565l10.127,2.813v-5.064l-5.626-6.751l-9.565-15.753l-14.628-6.751c0,0,2.25-8.439,18.004-5.064
			c15.754,3.376,19.129,1.688,19.129,1.688l3.938-12.378l27.006,25.881l15.753-0.563l15.191,23.068l34.32,4.501
			c0,0,2.813-2.813,6.189-1.688s6.751,7.314,6.751,7.314l3.938,5.626l-5.064,1.688l5.064,11.252l-7.877,4.501l15.753,11.252
			l9.002-3.798l0.703-6.892l4.079,1.969l7.173-7.314l5.486,4.501l4.36-1.125l8.299,22.364l3.938,2.532l4.36,5.767l11.534,15.472
			l6.751,4.22l5.064,3.235l2.391,0.422l4.642,9.565l13.784,6.751l0.703,8.158l6.611,6.048l2.11-12.659l6.892-3.235l21.239,1.125
			l31.788,34.883c3.249-1.168,6.497-2.336,9.746-3.504c5.097-1.833,10.194-3.665,15.291-5.498
			c-18.285-30.007-36.57-60.013-54.856-90.02l25.599-14.347l-10.62-18.989l4.009-39.243l47.049-72.051l-18.989-8.228l-6.646-12.765
			l-23.208,4.642l-57.704-69.414l-61.889-49.792l-57.528-43.885l-28.905-26.162l-23.63-14.136l-18.356-2.954L483.609,96.137z"/>
	</g>
	<g class="st1">
		<g>
			<path class="st2" d="M706.9,558.965c0.034,1.578,0.068,3.165,0.11,4.751c-3.941-0.042-7.882-0.076-11.815-0.11l-15.191-8.861
				c-3.131-0.422-6.262-0.844-9.393-1.266c-12.305,0.633-24.618,1.266-36.922,1.899c-9.427-6.473-18.845-12.938-28.272-19.411
				c0.025-4.481,0.051-8.954,0.068-13.435c1.857-1.755,3.705-3.511,5.562-5.275c-0.262-1.426-0.515-2.861-0.776-4.287
				c-2.675-3.19-5.342-6.38-8.017-9.562c0.49-2.515,0.987-5.021,1.477-7.528c2.431-0.279,4.853-0.565,7.275-0.844
				c3.663,1.511,7.317,3.021,10.971,4.54c-0.203-1.519-0.422-3.03-0.625-4.54c-4.017-1.688-8.017-3.376-12.035-5.064
				c0.042-1.198,0.076-2.388,0.11-3.587c2.886-1.3,5.764-2.599,8.65-3.907c0.279-1.933,0.565-3.865,0.844-5.798
				c1.089,0.532,2.177,1.055,3.274,1.578c2.312-2.245,4.642-4.498,6.954-6.751c1.376,0.92,2.751,1.831,4.118,2.751
				c1.831,0.245,3.654,0.489,5.486,0.734c2.987,7.351,5.975,14.701,8.963,22.052c1.198,0.7,2.397,1.401,3.595,2.11
				c2.988,3.266,5.975,6.532,8.963,9.807c3.274,4.186,6.54,8.372,9.807,12.558c2.532,1.755,5.064,3.511,7.595,5.266
				c1.097,0.625,2.186,1.249,3.274,1.865c1.924,3.519,4.042,5.089,5.967,8.608c4.118,1.688,8.051,5.317,12.178,7.005
				c0.565,2.532,1.122,5.064,1.688,7.595C702.824,554.231,704.858,556.594,706.9,558.965z"/>
		</g>
		<g>
			<path class="st2" d="M796.357,596.605c-3.772,4.523-8.38,9.486-13.925,14.507c-5.241,4.751-10.338,8.667-14.98,11.866
				l-10.76-24.685c0.143-5.697,0.279-11.393,0.422-17.09c-0.498-3.004-1.679-4.481-2.743-5.275c-2.127-1.57-4.405-0.861-5.697-2.532
				c-0.962-1.241-0.776-3.03-0.422-4.431c-3.494-2.717-7.216-5.477-11.182-8.228c-2.574-1.781-5.106-3.469-7.595-5.064
				c-0.776-1.544-1.544-3.089-2.321-4.642c-2.371-0.844-6.034-1.806-10.549-1.688c-2.768,0.076-5.131,0.549-6.962,1.055
				c0.017-1.325,0.253-4.473,2.532-6.751c1.89-1.882,4.296-2.296,6.541-2.532c7.418-0.76,14.98,0.287,20.043,1.266
				c5.376,4.228,9.165,8.178,11.604,10.971c7.823,8.971,11.815,15.824,11.815,15.824c1.207,1.131,2.338,2.397,5.216,5.595
				c1.494,1.257,2.658,2.92,2.658,2.92c3.781-1.359,8.557-2.743,9.747-3.502C785.285,581.009,790.872,589.786,796.357,596.605z"/>
		</g>
	</g>
	<g class="st1">
		<path class="st2" d="M773.641,533.296l-33.9-54.066l25.461-14.574l-10.62-18.989l4.009-39.243l46.629-71.407l-18.568-8.873
			l-6.646-12.765l84.605-15.402l95.259,6.751l36.5-17.512c0,0,6.751-2.954,10.971,3.165c4.22,6.119,8.228,18.778,8.228,18.778
			l29.327,26.373l14.136,44.729l20.254-5.908l2.532,62.029h-7.173l-1.266,42.619l41.353,5.908l6.33,68.148h4.009l7.595,21.942
			l-6.119,2.532l9.494,24.685v17.301l-5.064,6.751l-2.321,22.997l-19.833-15.191l-9.916-1.688l-4.009,13.714l-1.125,21.098
			l-8.299,13.081l6.329,1.125l-3.376,8.017l-13.222,5.204h-14.769l-21.802-11.815l-5.978,8.861l0.422,11.604h-11.815l-2.743,1.266
			l-9.494,1.477l4.22,8.439l0.211,15.824l0.211,9.072l-6.963,2.954l-2.321-12.237l-7.384-1.899l0.211-11.393l-12.87-5.486
			l-5.697,0.211l-14.98-17.09l1.688-8.228l12.237-8.228l-0.211-9.072l6.33-0.422l3.165-6.33l-5.486-12.448l4.431-2.954l11.393,1.477
			l7.595-0.211l6.54-10.549l1.477-8.228l10.549-1.055l0.844-16.879l-29.749-1.899l-15.824-6.54l-2.321-22.997l-3.587,0.844
			l-0.633,6.119l-23.208,1.477l-0.633,12.237l-26.162-2.743l-0.211-13.925l-8.439-0.211l-11.182,21.309l-9.283,0.422l-17.934-18.567
			l-28.905-14.769l-10.549-0.844l-9.283-18.356l-18.356-17.301l-0.422-9.494l-14.98,5.064L773.641,533.296z"/>
	</g>
	<g class="st1">
		<path class="st2" d="M1006.708,742.311l-23.841,20.044l5.064,10.233l-33.968,9.389l-10.971,9.283h-7.033l-1.407,3.094h-7.877
			l-33.757-26.021l-19.411-22.083l-82.706-58.513l-3.376-37.977l-6.47-4.501c0,0,4.22-7.033,3.376-7.033
			s-16.597-13.784-16.597-13.784l28.623-27.836l-15.85-21.524l14.478-5.988l-21.593-34.64c0,0,1.821-1.339,2.225-1.385
			s11.245-0.792,11.245-0.792l20.696-5.794l0.403,9.064l18.461,16.562l9.178,19.094l11.306,1.231l27.67,14.138l18.819,18.793
			l8.877-0.404l10.746-20.478l8.892,0.434l0.195,12.87l26.162,3.024l0.618-12.234l23.223-1.761l0.576-5.569l3.995-1.112
			l1.907,22.103l11.666,5.817l34.39,3.516l-1.266,16.597l-10.62,1.447l-1.407,9.102l-6.23,8.782l-5.242,0.501l-14.057-1.266
			l-4.431,2.954l5.14,11.664l-2.819,7.114l-6.33,0.422c0,0,2.64,6.358,0.199,8.54c-2.441,2.182-10.962,7.912-10.962,7.912
			s-1.313,1.093-1.375,1.397c-0.062,0.304-1.444,7.83-1.444,7.83l15.165,17.573l5.541-0.775l12.462,5.312l0.036,11.498l6.659,1.712
			L1006.708,742.311z"/>
	</g>
	<path class="st3" d="M1013.665,739.121l30.317,3.19l9.987-3.19v-3.984h4.22l8.721,11.956c0,0,2.672,6.33,3.094,6.47
		c0.422,0.141,5.345,5.064,5.345,5.064h7.455l1.688-6.048l15.331-0.985l0.633,2.672l3.938-3.376l1.828,0.281l5.978,4.009
		l5.275,0.211l3.516-0.914l5.767-6.048h9.283l7.595,3.27v11.815l12.343,0.738l2.215-7.384h6.962l2.954,3.376l15.085,0.211
		c0,0,4.536,8.017,4.888,8.228s11.745,1.477,11.745,1.477s1.055,3.516,1.266,3.587c0.211,0.07,5.626,0.633,5.415,0.914
		c-0.211,0.281-0.492,15.472-0.492,15.472h-11.674l-2.672,3.094l4.853,15.402l-2.602,11.464l-9.459-0.563l-6.329,8.756l-1.899,4.536
		l-10.022,7.912l-2.215,12.132l-8.334,1.477l-16.14,10.866l0.246,12.975l-8.791,4.009l-9.213,11.674l-3.938-1.969l-14.628-0.422
		l-11.253-13.081l-7.455,0.141l-19.833-13.011l-7.244,5.345l-23.911-7.455l-21.098-15.191l-13.608-15.296l-37.661-21.837
		l-18.989-18.145l0.176-1.336l6.961-5.676l4.679-3.959l33.853-9.621l-4.949-10l23.947-20.044L1013.665,739.121z"/>
	<polygon class="st3" points="1206.018,790.134 1222.615,789.079 1228.945,787.742 1234.431,788.516 1240.76,788.938 
		1243.222,795.69 1246.597,798.96 1246.597,806.028 1242.167,808.771 1237.103,810.564 1239.213,814.502 1241.112,816.999 
		1236.365,820.691 1237.244,838.519 1241.463,844.989 1240.901,850.334 1246.597,855.398 1249.903,861.587 1258.623,866.369 
		1261.999,875.371 1261.999,885.78 1256.654,893.867 1253.841,900.408 1253.841,905.472 1242.307,908.566 1237.525,920.944 
		1223.178,940.073 1218.114,951.607 1217.552,976.081 1216.427,980.863 1210.238,976.925 1203.767,974.674 1198.704,977.487 
		1192.796,972.143 1181.544,978.613 1172.542,980.863 1168.322,974.674 1160.445,971.58 1160.445,965.672 1153.694,960.046 
		1145.255,961.171 1134.283,962.297 1114.029,962.297 1117.123,958.358 1125.281,956.108 1124.156,951.888 1115.436,941.479 
		1116.561,914.755 1126.407,904.628 1126.407,900.408 1119.993,892.981 1130.626,882.967 1139.769,878.184 1139.523,865.209 
		1154.934,854.834 1163.75,852.91 1166.212,840.735 1176.234,832.823 1183.653,820.651 1193.922,820.093 1196.259,809.797 
		1191.671,793.228 1195.328,790.134 	"/>
	<path class="st3" d="M1193.429,755.392l-10.76,4.642l-13.921,0.22l-3.591-3.385h-6.681l-2.391,7.754l-12.228-1.095l-0.22-11.828
		l-7.519-3.237h-8.463l-6.734,6.473l-4.115,0.43l-4.808-0.32l-5.476-3.672l-1.803-0.432l-4.2,3.271l-0.697-2.618l-15.331,0.985
		l-1.688,6.048h-7.455l-5.345-5.064l-3.529-7.065l-8.287-11.361h-4.22v3.745l-9.987,3.428l-30.317-3.19l-0.4-23.392l-3.73-8.695
		l9.304-2.314l4.642-1.442c0,0,6.787,0,7.068,0c0.281,0,2.532,0,2.532,0s-1.354-7.102-0.368-10.123s5.924-10.342,5.924-10.342
		l22.136,12.132l14.706-0.423l13.46-4.904l2.866-8.211l-6.259-1.113c0,0,7.318-9.786,8.257-13.629
		c0.938-3.843,1.047-19.622,1.047-19.622l3.888-14.072l8.564,0.846l10.601,7.213l10.754,8.237l1.688,4.149l16.668,0.422
		l0.352,13.925l-2.25,5.626l9.072,6.47l-4.431,4.958l6.435,2.532l3.587,6.54l-3.059,4.907l5.591,3.955l14.241,1.16l9.178,0.422
		l9.494,8.545L1187.1,722.9l-0.633,4.747l6.435,3.27l-1.266,3.534l-6.066,0.264c0,0,0.739,6.224,0.949,6.224
		S1193.429,755.392,1193.429,755.392z"/>
	<g class="st1">
		<path class="st2" d="M1192.902,730.917l8.65-3.481l5.802-5.486h10.655c0,0,6.857,5.31,7.279,5.45
			c0.422,0.141,28.834,5.345,29.678,5.486c0.844,0.141,17.723,0,17.723,0l9.143-13.222l-3.798-6.752l4.782-6.892l-1.406-5.064
			l6.611-2.161l2.954,3.568l12.589-5.099l-7.068-12.87l2.532-5.486l11.815-1.582l-0.844-7.173l-3.903-1.688h-5.486
			c0,0-11.921,3.798-12.343,4.536s-2.004,2.743-2.004,2.743l-12.659-3.481c0,0,4.431-3.094,4.431-3.798
			c0-0.703-1.125-9.705-1.125-9.705l-15.613-2.11h-24.755l-1.969-6.611l9.565-9.283l-1.828-8.299l-5.064-2.251l1.828-5.486
			l4.642-1.547l2.391-10.127c0,0-5.908-8.861-6.611-9.143s-16.175-5.908-16.175-5.908l-0.422-6.611l6.892-1.125l4.36-22.083
			l-12.378,2.391l-10.971-12.237l-85.337-4.141l7.203,20.808l-6.119,2.532l9.166,23.832l0.328,17.31l-5.064,7.595l-2.321,22.997
			l1.481,3.64l16.875,0.931l0.352,13.925l-2.015,5.038l9.47,7.269l-5.011,4.768l6.707,3.102l3.263,5.949l-2.637,4.907l5.169,3.955
			l23.419,1.582l9.494,8.228l-7.717,9.838l-1.039,5.248L1192.902,730.917z"/>
	</g>
	<path class="st3" d="M1246.001,613.486l-2.182,9.241l-4.747,1.995l-1.828,5.486l4.737,2.106l2.014,7.805l-9.424,9.922l1.899,6.375
		c0,0,26.891,0.515,27.292,0.569c0.4,0.054,13.147,1.777,13.147,1.777l1.125,9.705l14.136-4.114l6.751,0.809l10.76-3.868
		l18.461,1.899c0,0-8.861-9.072-8.967-9.494c-0.105-0.422,1.16-9.494,1.16-9.494l3.903-3.227l-4.642-7.111l0.422-12.87l-2.954-4.009
		l-4.642,0.633l-3.587-7.384h-2.954l-0.422-6.962l-5.697-2.321l-0.844-2.11l-8.861-3.165l-1.477-6.33l-7.226-4.009l-1.002-5.486
		l-6.752,1.055l-0.422,21.942l4.853,6.119l0.422,6.54l6.541,2.954l-0.211,3.798l-12.659,3.798l-7.173-1.899l-2.321-3.798h-5.064
		l-5.485-6.962L1246.001,613.486z"/>
	<path class="st3" d="M1335.844,664.457l-8.703-1.635l-7.965-9.125l1.16-9.494l3.903-3.227l-4.631-7.431l0.382-11.649l-2.924-4.91
		l-4.642,0.633l-3.367-6.932l-3.173-0.452l-0.422-6.962l-5.697-2.321l-0.844-2.11l-8.861-3.165l-1.477-6.33l-6.738-3.738
		c0,0-1.631-6.249-1.35-6.178c0.281,0.07,6.329,4.22,6.329,4.22l5.345-8.369l14.874-18.531l6.857-12.237l7.701-4.747l5.697-8.65
		h18.039l-3.587-3.798l5.275-5.908h4.853l6.962-10.971l12.026-3.376l8.439-2.11l3.376,1.688l5.064-3.798l1.688-6.962l5.275,1.266
		l19.692-18.707v-7.666l8.65-9.916l10.831,6.47v3.798l4.782,2.11l3.938-4.501v-7.033l8.721-8.861h5.767l10.127-6.33l8.017-1.407
		h5.486l7.877,8.017v6.33l-7.173-0.563l-11.393,10.268l-9.143,0.563l-4.079,3.235l-0.141,9.143l-11.815,1.407l-14.628,12.659
		l-0.352,9.002l-15.683,8.51l-9.987,2.813l-0.07,7.314l10.549,1.969l13.679,11.569l-0.633,6.857l-6.646,3.059l-0.422,4.642
		l4.958,1.055l-2.426,3.903l2.11,6.541l5.169,7.384l-1.16,4.114l-7.912,0.844c0,0-0.422,6.54,0,6.54
		c0.422,0-1.688,5.697-1.688,5.697l-1.266,3.798l-7.701,2.954l-4.536,3.165l-2.532-0.949l-4.431,3.692l-5.591,4.853l-11.604,4.853
		l-3.376-0.738l-5.486,2.321l-4.22,6.752l-6.541-0.211l-10.655-14.452l-8.334-1.793l-4.853,6.541l-0.105,15.402l-7.595,1.688
		l-1.688,4.853l2.954,2.321l0.422,6.435l4.642,10.866l-0.527,3.587l-6.54,0.738L1335.844,664.457z"/>
	<path class="st3" d="M1428.782,537.551l9.494-5.222l6.699-0.633l5.802,4.905l1.846,3.956l-0.527,19.674l7.384-5.45l5.345,5.45
		l6.47-1.336c0,0,4.782,3.657,6.189,4.501c1.406,0.844,8.439-1.125,8.439-1.125s3.376-5.064,4.782-0.281
		c1.406,4.782,3.657,5.345,3.657,5.345s1.688-7.595,3.376-6.47s3.938,6.47,3.938,6.47s3.376-1.407,3.376-3.657s0-6.822,0-8.896
		c0-2.075,0-3.763,0-3.763s0.281-9.002,3.376-7.314c3.094,1.688,7.314,3.376,7.314,3.376l6.47-9.283l-2.532-7.595l-0.281-7.314
		c0,0,3.376-2.532,4.501-2.532s2.532,11.253,2.532,11.253l9.283,3.094l5.626,12.94l-4.501,11.534l4.501,3.938l8.861-0.422
		l4.782,2.672l3.938-2.532l3.798,0.985l3.094,13.644l-9.846,14.91l-15.05-3.657l-10.408,1.125l-19.692,10.127l0.457,8.685h-6.857
		l-15.824,9.705l-10.971-5.697l-4.642-1.688l1.055-3.798l-10.127-0.422l-9.916,2.637l-4.853-4.958l-6.33-0.105l3.165-4.22
		l-17.195-23.068l1.431-5.348l-4.912-8.296l-1.811-7.022l2.092-4.231l-4.877-0.75l0.376-4.138l6.646-3.059L1428.782,537.551z"/>
	<polygon class="st3" points="1565.816,577.462 1573.201,575.528 1576.576,572.996 1586.809,576.266 1587.864,580.908 
		1591.873,583.545 1593.982,590.93 1604.637,593.883 1614.659,593.883 1619.828,598.349 1625.173,596.732 1625.806,590.754 
		1631.643,594.762 1638.395,595.325 1637.269,600.248 1628.267,603.202 1626.017,607.984 1619.828,609.109 1617.437,613.61 
		1609.701,613.61 1608.154,619.94 1608.716,624.722 1602.809,622.331 1600.136,625.566 1599.152,629.786 1594.369,628.379 
		1586.774,626.129 1581.148,619.096 1577.35,620.784 1581.851,627.535 1580.163,629.786 1583.257,633.583 1582.695,639.632 
		1578.756,642.585 1572.568,636.959 1568.77,636.819 1568.207,632.177 1562.018,631.614 1562.018,627.676 1552.454,623.878 
		1541.061,621.206 1537.544,620.362 1524.885,610.235 1521.088,610.375 1519.822,607.791 1517.712,607.791 1516.586,616.986 
		1514.336,618.955 1507.303,608.652 1511.664,609.25 1510.82,599.967 1525.315,592.512 1530.181,590.009 1540.076,588.011 
		1556.111,593.075 	"/>
	<g class="st1">
		<path class="st2" d="M1562.018,632.036l-1.336,4.712l-5.275,0.985l-0.844,6.259l-10.479,8.51l4.571,4.149l-5.134,4.149
			l-5.767-2.11l-1.336,5.626l-9.846,4.923l-4.36-1.477l-0.422-6.681l-3.024-2.11l-1.828,2.04v4.501l-9.635-3.587l-1.477-6.47
			c0,0-10.549-2.18-11.463-2.602c-0.914-0.422-10.338-2.215-10.338-2.215l-7.525,1.864l-10.409,5.767l-7.666,2.549l-3.692,3.27
			l-10.338,2.163c0,0-4.272,0.686-4.431,0.369s-5.064-6.857-5.064-6.857l0.527-10.18l-8.686-3.692l-7.806-3.13l-1.723-4.853
			c0,0,0.035-3.235,0.141-3.2c0.106,0.035,8.615-2.18,8.615-2.18l7.033-5.995l6.804-5.591l7.806-6.33l6.699-5.081l9.6-2.778
			l9.756,0.406l-0.481,3.887l15.41,7.469l15.376-9.589l3.331-0.486l6.885,10.298l2.426-1.982l1.097-8.966l2.479-0.51l0.897,3.094
			l4.167-0.457l12.29,10.444l18.909,5.104c1.855,0.737,3.71,1.473,5.565,2.21C1562.018,629.129,1562.018,630.583,1562.018,632.036z"
			/>
		<path class="st2" d="M1471.612,659.71l-2.743,8.228l0.739,8.756l0.633,6.435l6.541,0.844l-0.527,2.848l-0.949,4.009l-3.27,5.275
			l7.49,2.11l5.802-3.165l-2.321-4.958c0,0-2.637-2.426-2.321-2.637c0.316-0.211,4.009-3.692,4.009-3.692l-4.325-1.793l-2.743-5.908
			L1471.612,659.71z"/>
		<polygon class="st2" points="1530.582,685.872 1524.78,690.092 1525.729,694.417 1533.746,693.468 1534.696,690.145 		"/>
	</g>
	<g>
		<g>
			<path class="st4" d="M996.546,611.999c0.173,8.11,0.347,16.263,0.564,24.417c-20.253-0.217-40.507-0.39-60.717-0.564
				l-78.064-45.538c-16.09-2.168-32.18-4.337-48.27-6.505c-63.232,3.253-126.508,6.505-189.74,9.758
				c-48.443-33.264-96.843-66.485-145.287-99.749c0.13-23.029,0.26-46.015,0.347-69.044c9.541-9.021,19.039-18.041,28.58-27.106
				c-1.344-7.329-2.645-14.702-3.99-22.031c-13.748-16.394-27.453-32.787-41.201-49.137c2.515-12.924,5.074-25.805,7.59-38.685
				c12.49-1.431,24.937-2.906,37.384-4.337c18.822,7.763,37.601,15.526,56.38,23.333c-1.041-7.807-2.168-15.57-3.209-23.333
				c-20.644-8.674-41.201-17.348-61.844-26.021c0.217-6.159,0.39-12.274,0.564-18.432c14.832-6.679,29.621-13.358,44.453-20.08
				c1.431-9.932,2.906-19.863,4.337-29.795c5.595,2.732,11.189,5.421,16.827,8.11c11.883-11.536,23.853-23.116,35.736-34.695
				c7.069,4.727,14.138,9.411,21.164,14.138c9.411,1.258,18.779,2.515,28.19,3.773c15.353,37.774,30.705,75.549,46.058,113.324
				c6.158,3.599,12.317,7.199,18.475,10.842c15.353,16.784,30.705,33.568,46.058,50.395c16.827,21.511,33.611,43.022,50.395,64.533
				c13.011,9.021,26.021,18.041,39.032,27.062c5.638,3.209,11.233,6.419,16.827,9.584c9.888,18.085,20.774,26.152,30.662,44.237
				c21.164,8.674,41.374,27.323,62.582,35.996c2.906,13.011,5.768,26.021,8.674,39.032
				C975.599,587.669,986.051,599.812,996.546,611.999z"/>
		</g>
		<g>
			<path class="st4" d="M1456.259,805.425c-19.386,23.246-43.065,48.747-71.559,74.552c-26.932,24.417-53.127,44.54-76.98,60.977
				l-55.296-126.855c0.737-29.274,1.431-58.548,2.168-87.823c-2.559-15.439-8.63-23.029-14.095-27.106
				c-10.929-8.067-22.639-4.424-29.274-13.011c-4.944-6.375-3.99-15.569-2.168-22.769c-17.955-13.965-37.08-28.147-57.464-42.285
				c-13.227-9.151-26.238-17.825-39.032-26.021c-3.99-7.937-7.937-15.873-11.927-23.853c-12.187-4.337-31.009-9.281-54.211-8.674
				c-14.225,0.39-26.368,2.819-35.779,5.421c0.087-6.809,1.301-22.986,13.011-34.695c9.715-9.671,22.075-11.796,33.611-13.011
				c38.121-3.903,76.98,1.475,103.002,6.505c27.626,21.728,47.099,42.025,59.633,56.38c40.203,46.101,60.717,81.317,60.717,81.317
				c6.202,5.812,12.013,12.317,26.802,28.754c7.677,6.462,13.661,15.006,13.661,15.006c19.429-6.983,43.976-14.095,50.091-17.998
				C1399.359,725.279,1428.069,770.383,1456.259,805.425z"/>
		</g>
	</g>
</g>
<g id="Слой_3" class="st0">
	<rect x="460" y="40" class="st5" width="1000" height="1000"/>
</g>
</svg>
